<svg xmlns="http://www.w3.org/2000/svg" version="1.1" width="841mm" height="594mm" viewBox="0 0 841 594"><defs><pattern id="grass" width="4" height="4" patternUnits="userSpaceOnUse"><rect width="4" height="4" fill="#eef3ea"/><path d="M1 3 l0.5 -1 M2 3.4 l0.4 -0.9 M3 2.8 l0.5 -1" stroke="#9dbb96" stroke-width="0.14" fill="none"/></pattern><pattern id="paving" width="6" height="6" patternUnits="userSpaceOnUse"><rect width="6" height="6" fill="#f4f3f0"/><path d="M0 0 H6 M0 0 V6" stroke="#dcd9d2" stroke-width="0.13"/></pattern><pattern id="water" width="4" height="3" patternUnits="userSpaceOnUse"><rect width="4" height="3" fill="#e8f1f6"/><path d="M0 1.5 Q1 0.7 2 1.5 T4 1.5" fill="none" stroke="#9dc2d8" stroke-width="0.15"/></pattern></defs><rect x="0" y="0" width="841" height="594" fill="#ffffff"/><rect x="10" y="10" width="821" height="574" fill="none" stroke="#111111" stroke-width="0.35"/><line x1="651" y1="10" x2="651" y2="584" stroke="#111111" stroke-width="0.35" stroke-linecap="round"/><text x="659" y="22" font-family="'Helvetica Neue',Helvetica,Arial,sans-serif" font-size="8.5" fill="#111111" font-weight="700" text-anchor="start" letter-spacing="1.2">ARCHI</text><text x="689.5" y="22" font-family="'Helvetica Neue',Helvetica,Arial,sans-serif" font-size="8.5" fill="#1c5fa8" font-weight="700" text-anchor="start" letter-spacing="1.2">AI</text><text x="659" y="28.5" font-family="'Helvetica Neue',Helvetica,Arial,sans-serif" font-size="2.4" fill="#8a8a8a" font-weight="500" text-anchor="start" letter-spacing="1.8">DESIGN STUDIO</text><line x1="651" y1="34" x2="831" y2="34" stroke="#111111" stroke-width="0.25" stroke-linecap="round"/><text x="659" y="42" font-family="'Helvetica Neue',Helvetica,Arial,sans-serif" font-size="2" fill="#8a8a8a" font-weight="600" text-anchor="start" letter-spacing="0.9">PROJECT</text><text x="659" y="46.4" font-family="'Helvetica Neue',Helvetica,Arial,sans-serif" font-size="5.5" fill="#111111" font-weight="600" text-anchor="start">TORUS</text><text x="659" y="51.6" font-family="'Helvetica Neue',Helvetica,Arial,sans-serif" font-size="5.5" fill="#111111" font-weight="600" text-anchor="start">Two-storey office pavilion</text><line x1="651" y1="55.8" x2="831" y2="55.8" stroke="#c9c9c9" stroke-width="0.25" stroke-linecap="round"/><text x="659" y="59.8" font-family="'Helvetica Neue',Helvetica,Arial,sans-serif" font-size="2" fill="#8a8a8a" font-weight="600" text-anchor="start" letter-spacing="0.9">CLIENT</text><text x="659" y="64.2" font-family="'Helvetica Neue',Helvetica,Arial,sans-serif" font-size="3" fill="#111111" font-weight="500" text-anchor="start">ArchiAI</text><line x1="651" y1="68.4" x2="831" y2="68.4" stroke="#c9c9c9" stroke-width="0.25" stroke-linecap="round"/><text x="659" y="72.4" font-family="'Helvetica Neue',Helvetica,Arial,sans-serif" font-size="2" fill="#8a8a8a" font-weight="600" text-anchor="start" letter-spacing="0.9">DRAWING TITLE</text><text x="659" y="76.8" font-family="'Helvetica Neue',Helvetica,Arial,sans-serif" font-size="4.6" fill="#111111" font-weight="600" text-anchor="start">Site Plan</text><text x="659" y="83" font-family="'Helvetica Neue',Helvetica,Arial,sans-serif" font-size="2.4" fill="#8a8a8a" font-weight="400" text-anchor="start">Site datum +0.000 = 42.600 AOD</text><line x1="651" y1="84" x2="831" y2="84" stroke="#c9c9c9" stroke-width="0.25" stroke-linecap="round"/><text x="659" y="88" font-family="'Helvetica Neue',Helvetica,Arial,sans-serif" font-size="2" fill="#8a8a8a" font-weight="600" text-anchor="start" letter-spacing="0.9">NOTES</text><text x="659" y="92.4" font-family="'Helvetica Neue',Helvetica,Arial,sans-serif" font-size="2.1" fill="#111111" font-weight="400" text-anchor="start">Levels shown are AOD.</text><text x="659" y="96.4" font-family="'Helvetica Neue',Helvetica,Arial,sans-serif" font-size="2.1" fill="#111111" font-weight="400" text-anchor="start">Refer to landscape package for planting.</text><line x1="651" y1="98.4" x2="831" y2="98.4" stroke="#c9c9c9" stroke-width="0.25" stroke-linecap="round"/><line x1="651" y1="538" x2="831" y2="538" stroke="#111111" stroke-width="0.25" stroke-linecap="round"/><text x="656" y="543" font-family="'Helvetica Neue',Helvetica,Arial,sans-serif" font-size="1.9" fill="#8a8a8a" font-weight="600" text-anchor="start" letter-spacing="0.7">SCALE @ A1</text><text x="656" y="548.5" font-family="'Helvetica Neue',Helvetica,Arial,sans-serif" font-size="3" fill="#111111" font-weight="500" text-anchor="start">1 : 500</text><line x1="711" y1="538" x2="711" y2="552" stroke="#c9c9c9" stroke-width="0.25" stroke-linecap="round"/><text x="716" y="543" font-family="'Helvetica Neue',Helvetica,Arial,sans-serif" font-size="1.9" fill="#8a8a8a" font-weight="600" text-anchor="start" letter-spacing="0.7">STATUS</text><text x="716" y="548.5" font-family="'Helvetica Neue',Helvetica,Arial,sans-serif" font-size="3" fill="#111111" font-weight="500" text-anchor="start">STAGE 3</text><line x1="771" y1="538" x2="771" y2="552" stroke="#c9c9c9" stroke-width="0.25" stroke-linecap="round"/><text x="776" y="543" font-family="'Helvetica Neue',Helvetica,Arial,sans-serif" font-size="1.9" fill="#8a8a8a" font-weight="600" text-anchor="start" letter-spacing="0.7">DATE</text><text x="776" y="548.5" font-family="'Helvetica Neue',Helvetica,Arial,sans-serif" font-size="3" fill="#111111" font-weight="500" text-anchor="start">2026-08-19</text><line x1="651" y1="552" x2="831" y2="552" stroke="#c9c9c9" stroke-width="0.25" stroke-linecap="round"/><text x="656" y="559" font-family="'Helvetica Neue',Helvetica,Arial,sans-serif" font-size="1.9" fill="#8a8a8a" font-weight="600" text-anchor="start" letter-spacing="0.7">DRAWING NUMBER</text><text x="656" y="569" font-family="'Helvetica Neue',Helvetica,Arial,sans-serif" font-size="7" fill="#111111" font-weight="700" text-anchor="start">AAI-2601-A-010</text><text x="826" y="569" font-family="'Helvetica Neue',Helvetica,Arial,sans-serif" font-size="4.4" fill="#1c5fa8" font-weight="600" text-anchor="end">REV P03</text><line x1="651" y1="574" x2="831" y2="574" stroke="#c9c9c9" stroke-width="0.25" stroke-linecap="round"/><text x="656" y="580" font-family="'Helvetica Neue',Helvetica,Arial,sans-serif" font-size="1.85" fill="#8a8a8a" font-weight="400" text-anchor="start">Do not scale from this drawing. Figured dimensions govern.</text><circle cx="330.5" cy="297" r="236" fill="url(#grass)"/><circle cx="330.5" cy="297" r="236" fill="none" stroke="#2f6b3f" stroke-width="0.5" stroke-dasharray="12,4"/><path d="M 441.5 297 A 111 111 0 1 0 219.5 297 A 111 111 0 1 0 441.5 297 Z M 427.5 297 A 97 97 0 1 1 233.5 297 A 97 97 0 1 1 427.5 297 Z" fill="#eceae6"/><path d="M 427.5 297 A 97 97 0 0 0 330.5 200 A 97 97 0 0 0 233.5 297 A 97 97 0 0 0 330.5 394 A 97 97 0 0 0 427.5 297" fill="none" stroke="#8a8a8a" stroke-width="0.25" stroke-linecap="round" stroke-linejoin="round"/><path d="M 441.5 297 A 111 111 0 0 0 330.5 186 A 111 111 0 0 0 219.5 297 A 111 111 0 0 0 330.5 408 A 111 111 0 0 0 441.5 297" fill="none" stroke="#8a8a8a" stroke-width="0.25" stroke-linecap="round" stroke-linejoin="round"/><path d="M 434.5 297 A 104 104 0 0 0 330.5 193 A 104 104 0 0 0 226.5 297 A 104 104 0 0 0 330.5 401 A 104 104 0 0 0 434.5 297" fill="none" stroke="#b9b6b0" stroke-width="0.13" stroke-linecap="round" stroke-linejoin="round" stroke-dasharray="8,4"/><path d="M 305.831 531.707 A 236 236 0 0 0 355.169 531.707 L 338.277 370.992 A 74.4 74.4 0 0 1 322.723 370.992 Z" fill="url(#paving)"/><path d="M 289.458 409.763 A 120 120 0 0 0 371.542 409.763 L 355.946 366.913 A 74.4 74.4 0 0 1 305.054 366.913 Z" fill="url(#paving)"/><path d="M 289.458 409.763 A 120 120 0 0 0 371.542 409.763 L 355.946 366.913 A 74.4 74.4 0 0 1 305.054 366.913 Z" fill="none" stroke="#8a8a8a" stroke-width="0.25" stroke-linecap="round" stroke-linejoin="round"/><path d="M 353.786 187.447 A 112 112 0 0 0 307.214 187.447 L 315.031 224.226 A 74.4 74.4 0 0 1 345.969 224.226 Z" fill="#eceae6"/><path d="M 353.786 187.447 A 112 112 0 0 0 307.214 187.447 L 315.031 224.226 A 74.4 74.4 0 0 1 345.969 224.226 Z" fill="none" stroke="#8a8a8a" stroke-width="0.25" stroke-linecap="round" stroke-linejoin="round"/><path d="M 451.356 291.089 A 121 121 0 0 0 450.792 283.932 L 440.851 285.012 A 111 111 0 0 1 441.367 291.578 Z" fill="#f4f3f0" stroke="#a9a6a0" stroke-width="0.13" stroke-linecap="round" stroke-linejoin="round"/><path d="M 450.194 279.272 A 121 121 0 0 0 448.932 272.204 L 439.144 274.254 A 111 111 0 0 1 440.302 280.737 Z" fill="#f4f3f0" stroke="#a9a6a0" stroke-width="0.13" stroke-linecap="round" stroke-linejoin="round"/><path d="M 447.88 267.625 A 121 121 0 0 0 445.931 260.715 L 436.392 263.714 A 111 111 0 0 1 438.179 270.053 Z" fill="#f4f3f0" stroke="#a9a6a0" stroke-width="0.13" stroke-linecap="round" stroke-linejoin="round"/><path d="M 444.436 256.261 A 121 121 0 0 0 441.819 249.576 L 432.619 253.495 A 111 111 0 0 1 435.02 259.628 Z" fill="#f4f3f0" stroke="#a9a6a0" stroke-width="0.13" stroke-linecap="round" stroke-linejoin="round"/><path d="M 439.894 245.29 A 121 121 0 0 0 436.635 238.893 L 427.863 243.695 A 111 111 0 0 1 430.853 249.563 Z" fill="#f4f3f0" stroke="#a9a6a0" stroke-width="0.13" stroke-linecap="round" stroke-linejoin="round"/><path d="M 434.299 234.816 A 121 121 0 0 0 430.428 228.77 L 422.17 234.409 A 111 111 0 0 1 425.72 239.955 Z" fill="#f4f3f0" stroke="#a9a6a0" stroke-width="0.13" stroke-linecap="round" stroke-linejoin="round"/><path d="M 427.704 224.942 A 121 121 0 0 0 423.259 219.304 L 415.593 225.725 A 111 111 0 0 1 419.67 230.897 Z" fill="#f4f3f0" stroke="#a9a6a0" stroke-width="0.13" stroke-linecap="round" stroke-linejoin="round"/><path d="M 420.173 215.761 A 121 121 0 0 0 415.197 210.586 L 408.197 217.727 A 111 111 0 0 1 412.762 222.475 Z" fill="#f4f3f0" stroke="#a9a6a0" stroke-width="0.13" stroke-linecap="round" stroke-linejoin="round"/><path d="M 411.778 207.363 A 121 121 0 0 0 406.319 202.7 L 400.053 210.493 A 111 111 0 0 1 405.061 214.771 Z" fill="#f4f3f0" stroke="#a9a6a0" stroke-width="0.13" stroke-linecap="round" stroke-linejoin="round"/><path d="M 402.601 199.828 A 121 121 0 0 0 396.711 195.723 L 391.239 204.093 A 111 111 0 0 1 396.642 207.858 Z" fill="#f4f3f0" stroke="#a9a6a0" stroke-width="0.13" stroke-linecap="round" stroke-linejoin="round"/><path d="M 392.729 193.228 A 121 121 0 0 0 386.465 189.72 L 381.84 198.587 A 111 111 0 0 1 387.586 201.805 Z" fill="#f4f3f0" stroke="#a9a6a0" stroke-width="0.13" stroke-linecap="round" stroke-linejoin="round"/><path d="M 382.258 187.629 A 121 121 0 0 0 375.681 184.752 L 371.947 194.028 A 111 111 0 0 1 377.981 196.668 Z" fill="#f4f3f0" stroke="#a9a6a0" stroke-width="0.13" stroke-linecap="round" stroke-linejoin="round"/><path d="M 371.289 183.082 A 121 121 0 0 0 364.461 180.864 L 361.654 190.462 A 111 111 0 0 1 367.918 192.497 Z" fill="#f4f3f0" stroke="#a9a6a0" stroke-width="0.13" stroke-linecap="round" stroke-linejoin="round"/><path d="M 289.761 183.064 A 121 121 0 0 0 283.076 185.681 L 286.995 194.881 A 111 111 0 0 1 293.128 192.48 Z" fill="#f4f3f0" stroke="#a9a6a0" stroke-width="0.13" stroke-linecap="round" stroke-linejoin="round"/><path d="M 278.79 187.606 A 121 121 0 0 0 272.393 190.865 L 277.195 199.637 A 111 111 0 0 1 283.063 196.647 Z" fill="#f4f3f0" stroke="#a9a6a0" stroke-width="0.13" stroke-linecap="round" stroke-linejoin="round"/><path d="M 268.316 193.201 A 121 121 0 0 0 262.27 197.072 L 267.909 205.33 A 111 111 0 0 1 273.455 201.78 Z" fill="#f4f3f0" stroke="#a9a6a0" stroke-width="0.13" stroke-linecap="round" stroke-linejoin="round"/><path d="M 258.442 199.796 A 121 121 0 0 0 252.804 204.241 L 259.225 211.907 A 111 111 0 0 1 264.397 207.83 Z" fill="#f4f3f0" stroke="#a9a6a0" stroke-width="0.13" stroke-linecap="round" stroke-linejoin="round"/><path d="M 249.261 207.327 A 121 121 0 0 0 244.086 212.303 L 251.227 219.303 A 111 111 0 0 1 255.975 214.738 Z" fill="#f4f3f0" stroke="#a9a6a0" stroke-width="0.13" stroke-linecap="round" stroke-linejoin="round"/><path d="M 240.863 215.722 A 121 121 0 0 0 236.2 221.181 L 243.993 227.447 A 111 111 0 0 1 248.271 222.439 Z" fill="#f4f3f0" stroke="#a9a6a0" stroke-width="0.13" stroke-linecap="round" stroke-linejoin="round"/><path d="M 233.328 224.899 A 121 121 0 0 0 229.223 230.789 L 237.593 236.261 A 111 111 0 0 1 241.358 230.858 Z" fill="#f4f3f0" stroke="#a9a6a0" stroke-width="0.13" stroke-linecap="round" stroke-linejoin="round"/><path d="M 226.728 234.771 A 121 121 0 0 0 223.22 241.035 L 232.087 245.66 A 111 111 0 0 1 235.305 239.914 Z" fill="#f4f3f0" stroke="#a9a6a0" stroke-width="0.13" stroke-linecap="round" stroke-linejoin="round"/><path d="M 221.129 245.242 A 121 121 0 0 0 218.252 251.819 L 227.528 255.553 A 111 111 0 0 1 230.168 249.519 Z" fill="#f4f3f0" stroke="#a9a6a0" stroke-width="0.13" stroke-linecap="round" stroke-linejoin="round"/><path d="M 216.582 256.211 A 121 121 0 0 0 214.364 263.039 L 223.962 265.846 A 111 111 0 0 1 225.997 259.582 Z" fill="#f4f3f0" stroke="#a9a6a0" stroke-width="0.13" stroke-linecap="round" stroke-linejoin="round"/><path d="M 213.133 267.574 A 121 121 0 0 0 211.594 274.586 L 221.421 276.439 A 111 111 0 0 1 222.832 270.006 Z" fill="#f4f3f0" stroke="#a9a6a0" stroke-width="0.13" stroke-linecap="round" stroke-linejoin="round"/><path d="M 210.814 279.22 A 121 121 0 0 0 209.97 286.349 L 219.931 287.229 A 111 111 0 0 1 220.705 280.689 Z" fill="#f4f3f0" stroke="#a9a6a0" stroke-width="0.13" stroke-linecap="round" stroke-linejoin="round"/><path d="M 209.647 291.036 A 121 121 0 0 0 209.506 298.214 L 219.506 298.114 A 111 111 0 0 1 219.635 291.529 Z" fill="#f4f3f0" stroke="#a9a6a0" stroke-width="0.13" stroke-linecap="round" stroke-linejoin="round"/><path d="M 209.644 302.911 A 121 121 0 0 0 210.208 310.068 L 220.149 308.988 A 111 111 0 0 1 219.633 302.422 Z" fill="#f4f3f0" stroke="#a9a6a0" stroke-width="0.13" stroke-linecap="round" stroke-linejoin="round"/><path d="M 210.806 314.728 A 121 121 0 0 0 212.068 321.796 L 221.856 319.746 A 111 111 0 0 1 220.698 313.263 Z" fill="#f4f3f0" stroke="#a9a6a0" stroke-width="0.13" stroke-linecap="round" stroke-linejoin="round"/><path d="M 213.12 326.375 A 121 121 0 0 0 215.069 333.285 L 224.608 330.286 A 111 111 0 0 1 222.821 323.947 Z" fill="#f4f3f0" stroke="#a9a6a0" stroke-width="0.13" stroke-linecap="round" stroke-linejoin="round"/><path d="M 216.564 337.739 A 121 121 0 0 0 219.181 344.424 L 228.381 340.505 A 111 111 0 0 1 225.98 334.372 Z" fill="#f4f3f0" stroke="#a9a6a0" stroke-width="0.13" stroke-linecap="round" stroke-linejoin="round"/><path d="M 221.106 348.71 A 121 121 0 0 0 224.365 355.107 L 233.137 350.305 A 111 111 0 0 1 230.147 344.437 Z" fill="#f4f3f0" stroke="#a9a6a0" stroke-width="0.13" stroke-linecap="round" stroke-linejoin="round"/><path d="M 226.701 359.184 A 121 121 0 0 0 230.572 365.23 L 238.83 359.591 A 111 111 0 0 1 235.28 354.045 Z" fill="#f4f3f0" stroke="#a9a6a0" stroke-width="0.13" stroke-linecap="round" stroke-linejoin="round"/><path d="M 233.296 369.058 A 121 121 0 0 0 237.741 374.696 L 245.407 368.275 A 111 111 0 0 1 241.33 363.103 Z" fill="#f4f3f0" stroke="#a9a6a0" stroke-width="0.13" stroke-linecap="round" stroke-linejoin="round"/><path d="M 240.827 378.239 A 121 121 0 0 0 245.803 383.414 L 252.803 376.273 A 111 111 0 0 1 248.238 371.525 Z" fill="#f4f3f0" stroke="#a9a6a0" stroke-width="0.13" stroke-linecap="round" stroke-linejoin="round"/><path d="M 249.222 386.637 A 121 121 0 0 0 254.681 391.3 L 260.947 383.507 A 111 111 0 0 1 255.939 379.229 Z" fill="#f4f3f0" stroke="#a9a6a0" stroke-width="0.13" stroke-linecap="round" stroke-linejoin="round"/><path d="M 258.399 394.172 A 121 121 0 0 0 264.289 398.277 L 269.761 389.907 A 111 111 0 0 1 264.358 386.142 Z" fill="#f4f3f0" stroke="#a9a6a0" stroke-width="0.13" stroke-linecap="round" stroke-linejoin="round"/><path d="M 268.271 400.772 A 121 121 0 0 0 274.535 404.28 L 279.16 395.413 A 111 111 0 0 1 273.414 392.195 Z" fill="#f4f3f0" stroke="#a9a6a0" stroke-width="0.13" stroke-linecap="round" stroke-linejoin="round"/><path d="M 392.684 400.799 A 121 121 0 0 0 398.73 396.928 L 393.091 388.67 A 111 111 0 0 1 387.545 392.22 Z" fill="#f4f3f0" stroke="#a9a6a0" stroke-width="0.13" stroke-linecap="round" stroke-linejoin="round"/><path d="M 402.558 394.204 A 121 121 0 0 0 408.196 389.759 L 401.775 382.093 A 111 111 0 0 1 396.603 386.17 Z" fill="#f4f3f0" stroke="#a9a6a0" stroke-width="0.13" stroke-linecap="round" stroke-linejoin="round"/><path d="M 411.739 386.673 A 121 121 0 0 0 416.914 381.697 L 409.773 374.697 A 111 111 0 0 1 405.025 379.262 Z" fill="#f4f3f0" stroke="#a9a6a0" stroke-width="0.13" stroke-linecap="round" stroke-linejoin="round"/><path d="M 420.137 378.278 A 121 121 0 0 0 424.8 372.819 L 417.007 366.553 A 111 111 0 0 1 412.729 371.561 Z" fill="#f4f3f0" stroke="#a9a6a0" stroke-width="0.13" stroke-linecap="round" stroke-linejoin="round"/><path d="M 427.672 369.101 A 121 121 0 0 0 431.777 363.211 L 423.407 357.739 A 111 111 0 0 1 419.642 363.142 Z" fill="#f4f3f0" stroke="#a9a6a0" stroke-width="0.13" stroke-linecap="round" stroke-linejoin="round"/><path d="M 434.272 359.229 A 121 121 0 0 0 437.78 352.965 L 428.913 348.34 A 111 111 0 0 1 425.695 354.086 Z" fill="#f4f3f0" stroke="#a9a6a0" stroke-width="0.13" stroke-linecap="round" stroke-linejoin="round"/><path d="M 439.871 348.758 A 121 121 0 0 0 442.748 342.181 L 433.472 338.447 A 111 111 0 0 1 430.832 344.481 Z" fill="#f4f3f0" stroke="#a9a6a0" stroke-width="0.13" stroke-linecap="round" stroke-linejoin="round"/><path d="M 444.418 337.789 A 121 121 0 0 0 446.636 330.961 L 437.038 328.154 A 111 111 0 0 1 435.003 334.418 Z" fill="#f4f3f0" stroke="#a9a6a0" stroke-width="0.13" stroke-linecap="round" stroke-linejoin="round"/><path d="M 447.867 326.426 A 121 121 0 0 0 449.406 319.414 L 439.579 317.561 A 111 111 0 0 1 438.168 323.994 Z" fill="#f4f3f0" stroke="#a9a6a0" stroke-width="0.13" stroke-linecap="round" stroke-linejoin="round"/><path d="M 450.186 314.78 A 121 121 0 0 0 451.03 307.651 L 441.069 306.771 A 111 111 0 0 1 440.295 313.311 Z" fill="#f4f3f0" stroke="#a9a6a0" stroke-width="0.13" stroke-linecap="round" stroke-linejoin="round"/><path d="M 451.353 302.964 A 121 121 0 0 0 451.494 295.786 L 441.494 295.886 A 111 111 0 0 1 441.365 302.471 Z" fill="#f4f3f0" stroke="#a9a6a0" stroke-width="0.13" stroke-linecap="round" stroke-linejoin="round"/><path d="M 405.5 297 A 75 75 0 1 0 255.5 297 A 75 75 0 1 0 405.5 297 Z M 376.1 297 A 45.6 45.6 0 1 1 284.9 297 A 45.6 45.6 0 1 1 376.1 297 Z" fill="#dfe5ea"/><path d="M 405.5 297 A 75 75 0 0 0 330.5 222 A 75 75 0 0 0 255.5 297 A 75 75 0 0 0 330.5 372 A 75 75 0 0 0 405.5 297" fill="none" stroke="#111111" stroke-width="0.5" stroke-linecap="round" stroke-linejoin="round"/><path d="M 376.1 297 A 45.6 45.6 0 0 0 330.5 251.4 A 45.6 45.6 0 0 0 284.9 297 A 45.6 45.6 0 0 0 330.5 342.6 A 45.6 45.6 0 0 0 376.1 297" fill="none" stroke="#111111" stroke-width="0.5" stroke-linecap="round" stroke-linejoin="round"/><path d="M 390.5 297 A 60 60 0 0 0 330.5 237 A 60 60 0 0 0 270.5 297 A 60 60 0 0 0 330.5 357 A 60 60 0 0 0 390.5 297" fill="none" stroke="#93a2ad" stroke-width="0.18" stroke-linecap="round" stroke-linejoin="round" stroke-dasharray="3,2"/><circle cx="330.5" cy="297" r="45.6" fill="url(#grass)"/><circle cx="330.5" cy="297" r="14.4" fill="url(#water)" stroke="#88b2c9" stroke-width="0.18"/><path d="M 321.433 370.845 A 74.4 74.4 0 0 0 339.567 370.845 L 336.057 342.26 A 45.6 45.6 0 0 1 324.943 342.26 Z" fill="url(#paving)" stroke="#111111" stroke-width="0.35" stroke-linecap="round" stroke-linejoin="round"/><path d="M 338.277 223.008 A 74.4 74.4 0 0 0 322.723 223.008 L 325.734 251.65 A 45.6 45.6 0 0 1 335.266 251.65 Z" fill="url(#paving)" stroke="#111111" stroke-width="0.35" stroke-linecap="round" stroke-linejoin="round"/><circle cx="462.319" cy="290.092" r="6.8" fill="#e4eede" stroke="#8fae86" stroke-width="0.13"/><circle cx="459.615" cy="269.556" r="6.8" fill="#e4eede" stroke="#8fae86" stroke-width="0.13"/><circle cx="453.733" cy="249.695" r="6.8" fill="#e4eede" stroke="#8fae86" stroke-width="0.13"/><circle cx="444.815" cy="231" r="6.8" fill="#e4eede" stroke="#8fae86" stroke-width="0.13"/><circle cx="433.083" cy="213.93" r="6.8" fill="#e4eede" stroke="#8fae86" stroke-width="0.13"/><circle cx="418.825" cy="198.905" r="6.8" fill="#e4eede" stroke="#8fae86" stroke-width="0.13"/><circle cx="402.392" cy="186.295" r="6.8" fill="#e4eede" stroke="#8fae86" stroke-width="0.13"/><circle cx="384.189" cy="176.412" r="6.8" fill="#e4eede" stroke="#8fae86" stroke-width="0.13"/><circle cx="364.664" cy="169.498" r="6.8" fill="#e4eede" stroke="#8fae86" stroke-width="0.13"/><circle cx="344.298" cy="165.723" r="6.8" fill="#e4eede" stroke="#8fae86" stroke-width="0.13"/><circle cx="323.592" cy="165.181" r="6.8" fill="#e4eede" stroke="#8fae86" stroke-width="0.13"/><circle cx="303.056" cy="167.885" r="6.8" fill="#e4eede" stroke="#8fae86" stroke-width="0.13"/><circle cx="283.195" cy="173.767" r="6.8" fill="#e4eede" stroke="#8fae86" stroke-width="0.13"/><circle cx="264.5" cy="182.685" r="6.8" fill="#e4eede" stroke="#8fae86" stroke-width="0.13"/><circle cx="247.43" cy="194.417" r="6.8" fill="#e4eede" stroke="#8fae86" stroke-width="0.13"/><circle cx="232.405" cy="208.675" r="6.8" fill="#e4eede" stroke="#8fae86" stroke-width="0.13"/><circle cx="219.795" cy="225.108" r="6.8" fill="#e4eede" stroke="#8fae86" stroke-width="0.13"/><circle cx="209.912" cy="243.311" r="6.8" fill="#e4eede" stroke="#8fae86" stroke-width="0.13"/><circle cx="202.998" cy="262.836" r="6.8" fill="#e4eede" stroke="#8fae86" stroke-width="0.13"/><circle cx="199.223" cy="283.202" r="6.8" fill="#e4eede" stroke="#8fae86" stroke-width="0.13"/><circle cx="198.681" cy="303.908" r="6.8" fill="#e4eede" stroke="#8fae86" stroke-width="0.13"/><circle cx="201.385" cy="324.444" r="6.8" fill="#e4eede" stroke="#8fae86" stroke-width="0.13"/><circle cx="207.267" cy="344.305" r="6.8" fill="#e4eede" stroke="#8fae86" stroke-width="0.13"/><circle cx="216.185" cy="363" r="6.8" fill="#e4eede" stroke="#8fae86" stroke-width="0.13"/><circle cx="227.917" cy="380.07" r="6.8" fill="#e4eede" stroke="#8fae86" stroke-width="0.13"/><circle cx="242.175" cy="395.095" r="6.8" fill="#e4eede" stroke="#8fae86" stroke-width="0.13"/><circle cx="258.608" cy="407.705" r="6.8" fill="#e4eede" stroke="#8fae86" stroke-width="0.13"/><circle cx="276.811" cy="417.588" r="6.8" fill="#e4eede" stroke="#8fae86" stroke-width="0.13"/><circle cx="377.805" cy="420.233" r="6.8" fill="#e4eede" stroke="#8fae86" stroke-width="0.13"/><circle cx="396.5" cy="411.315" r="6.8" fill="#e4eede" stroke="#8fae86" stroke-width="0.13"/><circle cx="413.57" cy="399.583" r="6.8" fill="#e4eede" stroke="#8fae86" stroke-width="0.13"/><circle cx="428.595" cy="385.325" r="6.8" fill="#e4eede" stroke="#8fae86" stroke-width="0.13"/><circle cx="441.205" cy="368.892" r="6.8" fill="#e4eede" stroke="#8fae86" stroke-width="0.13"/><circle cx="451.088" cy="350.689" r="6.8" fill="#e4eede" stroke="#8fae86" stroke-width="0.13"/><circle cx="458.002" cy="331.164" r="6.8" fill="#e4eede" stroke="#8fae86" stroke-width="0.13"/><circle cx="461.777" cy="310.798" r="6.8" fill="#e4eede" stroke="#8fae86" stroke-width="0.13"/><circle cx="490.281" cy="288.626" r="6" fill="#e4eede" stroke="#8fae86" stroke-width="0.13"/><circle cx="487.821" cy="267.842" r="6" fill="#e4eede" stroke="#8fae86" stroke-width="0.13"/><circle cx="482.669" cy="247.557" r="6" fill="#e4eede" stroke="#8fae86" stroke-width="0.13"/><circle cx="474.914" cy="228.118" r="6" fill="#e4eede" stroke="#8fae86" stroke-width="0.13"/><circle cx="464.687" cy="209.858" r="6" fill="#e4eede" stroke="#8fae86" stroke-width="0.13"/><circle cx="452.165" cy="193.088" r="6" fill="#e4eede" stroke="#8fae86" stroke-width="0.13"/><circle cx="437.561" cy="178.097" r="6" fill="#e4eede" stroke="#8fae86" stroke-width="0.13"/><circle cx="421.125" cy="165.14" r="6" fill="#e4eede" stroke="#8fae86" stroke-width="0.13"/><circle cx="403.138" cy="154.439" r="6" fill="#e4eede" stroke="#8fae86" stroke-width="0.13"/><circle cx="383.909" cy="146.177" r="6" fill="#e4eede" stroke="#8fae86" stroke-width="0.13"/><circle cx="363.766" cy="140.496" r="6" fill="#e4eede" stroke="#8fae86" stroke-width="0.13"/><circle cx="343.053" cy="137.493" r="6" fill="#e4eede" stroke="#8fae86" stroke-width="0.13"/><circle cx="322.126" cy="137.219" r="6" fill="#e4eede" stroke="#8fae86" stroke-width="0.13"/><circle cx="301.342" cy="139.679" r="6" fill="#e4eede" stroke="#8fae86" stroke-width="0.13"/><circle cx="281.057" cy="144.831" r="6" fill="#e4eede" stroke="#8fae86" stroke-width="0.13"/><circle cx="261.618" cy="152.586" r="6" fill="#e4eede" stroke="#8fae86" stroke-width="0.13"/><circle cx="243.358" cy="162.813" r="6" fill="#e4eede" stroke="#8fae86" stroke-width="0.13"/><circle cx="226.588" cy="175.335" r="6" fill="#e4eede" stroke="#8fae86" stroke-width="0.13"/><circle cx="211.597" cy="189.939" r="6" fill="#e4eede" stroke="#8fae86" stroke-width="0.13"/><circle cx="198.64" cy="206.375" r="6" fill="#e4eede" stroke="#8fae86" stroke-width="0.13"/><circle cx="187.939" cy="224.362" r="6" fill="#e4eede" stroke="#8fae86" stroke-width="0.13"/><circle cx="179.677" cy="243.591" r="6" fill="#e4eede" stroke="#8fae86" stroke-width="0.13"/><circle cx="173.996" cy="263.734" r="6" fill="#e4eede" stroke="#8fae86" stroke-width="0.13"/><circle cx="170.993" cy="284.447" r="6" fill="#e4eede" stroke="#8fae86" stroke-width="0.13"/><circle cx="170.719" cy="305.374" r="6" fill="#e4eede" stroke="#8fae86" stroke-width="0.13"/><circle cx="173.179" cy="326.158" r="6" fill="#e4eede" stroke="#8fae86" stroke-width="0.13"/><circle cx="178.331" cy="346.443" r="6" fill="#e4eede" stroke="#8fae86" stroke-width="0.13"/><circle cx="186.086" cy="365.882" r="6" fill="#e4eede" stroke="#8fae86" stroke-width="0.13"/><circle cx="196.313" cy="384.142" r="6" fill="#e4eede" stroke="#8fae86" stroke-width="0.13"/><circle cx="208.835" cy="400.912" r="6" fill="#e4eede" stroke="#8fae86" stroke-width="0.13"/><circle cx="223.439" cy="415.903" r="6" fill="#e4eede" stroke="#8fae86" stroke-width="0.13"/><circle cx="239.875" cy="428.86" r="6" fill="#e4eede" stroke="#8fae86" stroke-width="0.13"/><circle cx="257.862" cy="439.561" r="6" fill="#e4eede" stroke="#8fae86" stroke-width="0.13"/><circle cx="399.382" cy="441.414" r="6" fill="#e4eede" stroke="#8fae86" stroke-width="0.13"/><circle cx="417.642" cy="431.187" r="6" fill="#e4eede" stroke="#8fae86" stroke-width="0.13"/><circle cx="434.412" cy="418.665" r="6" fill="#e4eede" stroke="#8fae86" stroke-width="0.13"/><circle cx="449.403" cy="404.061" r="6" fill="#e4eede" stroke="#8fae86" stroke-width="0.13"/><circle cx="462.36" cy="387.625" r="6" fill="#e4eede" stroke="#8fae86" stroke-width="0.13"/><circle cx="473.061" cy="369.638" r="6" fill="#e4eede" stroke="#8fae86" stroke-width="0.13"/><circle cx="481.323" cy="350.409" r="6" fill="#e4eede" stroke="#8fae86" stroke-width="0.13"/><circle cx="487.004" cy="330.266" r="6" fill="#e4eede" stroke="#8fae86" stroke-width="0.13"/><circle cx="490.007" cy="309.553" r="6" fill="#e4eede" stroke="#8fae86" stroke-width="0.13"/><circle cx="521.769" cy="280.266" r="7.2" fill="#e4eede" stroke="#8fae86" stroke-width="0.13"/><circle cx="518.693" cy="258.956" r="7.2" fill="#e4eede" stroke="#8fae86" stroke-width="0.13"/><circle cx="513.25" cy="238.124" r="7.2" fill="#e4eede" stroke="#8fae86" stroke-width="0.13"/><circle cx="505.509" cy="218.033" r="7.2" fill="#e4eede" stroke="#8fae86" stroke-width="0.13"/><circle cx="495.567" cy="198.935" r="7.2" fill="#e4eede" stroke="#8fae86" stroke-width="0.13"/><circle cx="483.549" cy="181.07" r="7.2" fill="#e4eede" stroke="#8fae86" stroke-width="0.13"/><circle cx="469.607" cy="164.662" r="7.2" fill="#e4eede" stroke="#8fae86" stroke-width="0.13"/><circle cx="453.915" cy="149.919" r="7.2" fill="#e4eede" stroke="#8fae86" stroke-width="0.13"/><circle cx="436.671" cy="137.026" r="7.2" fill="#e4eede" stroke="#8fae86" stroke-width="0.13"/><circle cx="418.092" cy="126.145" r="7.2" fill="#e4eede" stroke="#8fae86" stroke-width="0.13"/><circle cx="398.412" cy="117.412" r="7.2" fill="#e4eede" stroke="#8fae86" stroke-width="0.13"/><circle cx="377.877" cy="110.937" r="7.2" fill="#e4eede" stroke="#8fae86" stroke-width="0.13"/><circle cx="356.747" cy="106.802" r="7.2" fill="#e4eede" stroke="#8fae86" stroke-width="0.13"/><circle cx="335.287" cy="105.06" r="7.2" fill="#e4eede" stroke="#8fae86" stroke-width="0.13"/><circle cx="313.766" cy="105.731" r="7.2" fill="#e4eede" stroke="#8fae86" stroke-width="0.13"/><circle cx="292.456" cy="108.807" r="7.2" fill="#e4eede" stroke="#8fae86" stroke-width="0.13"/><circle cx="271.624" cy="114.25" r="7.2" fill="#e4eede" stroke="#8fae86" stroke-width="0.13"/><circle cx="251.533" cy="121.991" r="7.2" fill="#e4eede" stroke="#8fae86" stroke-width="0.13"/><circle cx="232.435" cy="131.933" r="7.2" fill="#e4eede" stroke="#8fae86" stroke-width="0.13"/><circle cx="214.57" cy="143.951" r="7.2" fill="#e4eede" stroke="#8fae86" stroke-width="0.13"/><circle cx="198.162" cy="157.893" r="7.2" fill="#e4eede" stroke="#8fae86" stroke-width="0.13"/><circle cx="183.419" cy="173.585" r="7.2" fill="#e4eede" stroke="#8fae86" stroke-width="0.13"/><circle cx="170.526" cy="190.829" r="7.2" fill="#e4eede" stroke="#8fae86" stroke-width="0.13"/><circle cx="159.645" cy="209.408" r="7.2" fill="#e4eede" stroke="#8fae86" stroke-width="0.13"/><circle cx="150.912" cy="229.088" r="7.2" fill="#e4eede" stroke="#8fae86" stroke-width="0.13"/><circle cx="144.437" cy="249.623" r="7.2" fill="#e4eede" stroke="#8fae86" stroke-width="0.13"/><circle cx="140.302" cy="270.753" r="7.2" fill="#e4eede" stroke="#8fae86" stroke-width="0.13"/><circle cx="138.56" cy="292.213" r="7.2" fill="#e4eede" stroke="#8fae86" stroke-width="0.13"/><circle cx="139.231" cy="313.734" r="7.2" fill="#e4eede" stroke="#8fae86" stroke-width="0.13"/><circle cx="142.307" cy="335.044" r="7.2" fill="#e4eede" stroke="#8fae86" stroke-width="0.13"/><circle cx="147.75" cy="355.876" r="7.2" fill="#e4eede" stroke="#8fae86" stroke-width="0.13"/><circle cx="155.491" cy="375.967" r="7.2" fill="#e4eede" stroke="#8fae86" stroke-width="0.13"/><circle cx="165.433" cy="395.065" r="7.2" fill="#e4eede" stroke="#8fae86" stroke-width="0.13"/><circle cx="177.451" cy="412.93" r="7.2" fill="#e4eede" stroke="#8fae86" stroke-width="0.13"/><circle cx="191.393" cy="429.338" r="7.2" fill="#e4eede" stroke="#8fae86" stroke-width="0.13"/><circle cx="207.085" cy="444.081" r="7.2" fill="#e4eede" stroke="#8fae86" stroke-width="0.13"/><circle cx="224.329" cy="456.974" r="7.2" fill="#e4eede" stroke="#8fae86" stroke-width="0.13"/><circle cx="242.908" cy="467.855" r="7.2" fill="#e4eede" stroke="#8fae86" stroke-width="0.13"/><circle cx="262.588" cy="476.588" r="7.2" fill="#e4eede" stroke="#8fae86" stroke-width="0.13"/><circle cx="283.123" cy="483.063" r="7.2" fill="#e4eede" stroke="#8fae86" stroke-width="0.13"/><circle cx="304.253" cy="487.198" r="7.2" fill="#e4eede" stroke="#8fae86" stroke-width="0.13"/><circle cx="325.713" cy="488.94" r="7.2" fill="#e4eede" stroke="#8fae86" stroke-width="0.13"/><circle cx="347.234" cy="488.269" r="7.2" fill="#e4eede" stroke="#8fae86" stroke-width="0.13"/><circle cx="368.544" cy="485.193" r="7.2" fill="#e4eede" stroke="#8fae86" stroke-width="0.13"/><circle cx="389.376" cy="479.75" r="7.2" fill="#e4eede" stroke="#8fae86" stroke-width="0.13"/><circle cx="409.467" cy="472.009" r="7.2" fill="#e4eede" stroke="#8fae86" stroke-width="0.13"/><circle cx="428.565" cy="462.067" r="7.2" fill="#e4eede" stroke="#8fae86" stroke-width="0.13"/><circle cx="446.43" cy="450.049" r="7.2" fill="#e4eede" stroke="#8fae86" stroke-width="0.13"/><circle cx="462.838" cy="436.107" r="7.2" fill="#e4eede" stroke="#8fae86" stroke-width="0.13"/><circle cx="477.581" cy="420.415" r="7.2" fill="#e4eede" stroke="#8fae86" stroke-width="0.13"/><circle cx="490.474" cy="403.171" r="7.2" fill="#e4eede" stroke="#8fae86" stroke-width="0.13"/><circle cx="501.355" cy="384.592" r="7.2" fill="#e4eede" stroke="#8fae86" stroke-width="0.13"/><circle cx="510.088" cy="364.912" r="7.2" fill="#e4eede" stroke="#8fae86" stroke-width="0.13"/><circle cx="516.563" cy="344.377" r="7.2" fill="#e4eede" stroke="#8fae86" stroke-width="0.13"/><circle cx="520.698" cy="323.247" r="7.2" fill="#e4eede" stroke="#8fae86" stroke-width="0.13"/><circle cx="522.44" cy="301.787" r="7.2" fill="#e4eede" stroke="#8fae86" stroke-width="0.13"/><text x="330.5" y="389" font-family="'Helvetica Neue',Helvetica,Arial,sans-serif" font-size="2.6" fill="#111111" font-weight="600" text-anchor="middle" transform="rotate(90 330.5 389)" dominant-baseline="middle" stroke="#ffffff" stroke-width="0.884" paint-order="stroke" stroke-linejoin="round">PRINCIPAL APPROACH</text><text x="330.5" y="205" font-family="'Helvetica Neue',Helvetica,Arial,sans-serif" font-size="2.6" fill="#111111" font-weight="600" text-anchor="middle" transform="rotate(90 330.5 205)" dominant-baseline="middle" stroke="#ffffff" stroke-width="0.884" paint-order="stroke" stroke-linejoin="round">SERVICE YARD</text><text x="232.772" y="332.57" font-family="'Helvetica Neue',Helvetica,Arial,sans-serif" font-size="2.3" fill="#8a8a8a" font-weight="600" text-anchor="middle" transform="rotate(70 232.772 332.57)" dominant-baseline="middle" stroke="#ffffff" stroke-width="0.782" paint-order="stroke" stroke-linejoin="round">PERIMETER FIRE AND SERVICE ROAD  7000 WIDE</text><text x="480.407" y="147.093" font-family="'Helvetica Neue',Helvetica,Arial,sans-serif" font-size="2.6" fill="#2f6b3f" font-weight="700" text-anchor="middle" transform="rotate(45 480.407 147.093)" dominant-baseline="middle" stroke="#ffffff" stroke-width="0.884" paint-order="stroke" stroke-linejoin="round">SITE BOUNDARY</text><text x="372.926" y="339.426" font-family="'Helvetica Neue',Helvetica,Arial,sans-serif" font-size="4.4" fill="#111111" font-weight="700" text-anchor="middle" transform="rotate(-45 372.926 339.426)" letter-spacing="2" dominant-baseline="middle" stroke="#ffffff" stroke-width="1.496" paint-order="stroke" stroke-linejoin="round">TORUS</text><line x1="265.548" y1="259.5" x2="395.452" y2="334.5" stroke="#111111" stroke-width="0.13" stroke-linecap="round"/><path d="M 265.548 259.5 L 267.35 257.421 L 268.25 258.979 Z" fill="#111111"/><path d="M 395.452 334.5 L 393.65 336.579 L 392.75 335.021 Z" fill="#111111"/><text x="378.265" y="322.268" font-family="'Helvetica Neue',Helvetica,Arial,sans-serif" font-size="3" fill="#111111" font-weight="600" text-anchor="middle" transform="rotate(30 378.265 322.268)" stroke="#ffffff" stroke-width="1.02" paint-order="stroke" stroke-linejoin="round">Ø75000</text><text x="237.607" y="213.359" font-family="'Helvetica Neue',Helvetica,Arial,sans-serif" font-size="2.4" fill="#8a8a8a" font-weight="600" text-anchor="middle" transform="rotate(-48 237.607 213.359)" dominant-baseline="middle" stroke="#ffffff" stroke-width="0.816" paint-order="stroke" stroke-linejoin="round">Ø104 000  RING ROAD CENTRELINE</text><text x="170.694" y="456.806" font-family="'Helvetica Neue',Helvetica,Arial,sans-serif" font-size="2.4" fill="#2f6b3f" font-weight="600" text-anchor="middle" transform="rotate(45 170.694 456.806)" dominant-baseline="middle" stroke="#ffffff" stroke-width="0.816" paint-order="stroke" stroke-linejoin="round">Ø236 000  SITE BOUNDARY</text><circle cx="465.816" cy="247.749" r="1" fill="#111111"/><text x="468.216" y="248.749" font-family="'Helvetica Neue',Helvetica,Arial,sans-serif" font-size="2.1" fill="#111111" font-weight="500" text-anchor="start" stroke="#ffffff" stroke-width="0.714" paint-order="stroke" stroke-linejoin="round">42.60</text><circle cx="220.19" cy="204.439" r="1" fill="#111111"/><text x="222.59" y="205.439" font-family="'Helvetica Neue',Helvetica,Arial,sans-serif" font-size="2.1" fill="#111111" font-weight="500" text-anchor="start" stroke="#ffffff" stroke-width="0.714" paint-order="stroke" stroke-linejoin="round">42.35</text><circle cx="281.249" cy="432.316" r="1" fill="#111111"/><text x="283.649" y="433.316" font-family="'Helvetica Neue',Helvetica,Arial,sans-serif" font-size="2.1" fill="#111111" font-weight="500" text-anchor="start" stroke="#ffffff" stroke-width="0.714" paint-order="stroke" stroke-linejoin="round">42.85</text><circle cx="455.208" cy="369" r="1" fill="#111111"/><text x="457.608" y="370" font-family="'Helvetica Neue',Helvetica,Arial,sans-serif" font-size="2.1" fill="#111111" font-weight="500" text-anchor="start" stroke="#ffffff" stroke-width="0.714" paint-order="stroke" stroke-linejoin="round">42.45</text><circle cx="625" cy="38" r="11" fill="none" stroke="#111111" stroke-width="0.25"/><path d="M 625 28.54 L 628.3 44.05 L 625 40.64 Z" fill="#111111"/><path d="M 625 28.54 L 621.7 44.05 L 625 40.64 Z" fill="#ffffff" stroke="#111111" stroke-width="0.18" stroke-linecap="round" stroke-linejoin="round"/><text x="625" y="24.6" font-family="'Helvetica Neue',Helvetica,Arial,sans-serif" font-size="3.6" fill="#111111" font-weight="700" text-anchor="middle">N</text><rect x="18" y="558" width="20" height="2.2" fill="#111111" stroke="#111111" stroke-width="0.18"/><rect x="38" y="558" width="20" height="2.2" fill="#ffffff" stroke="#111111" stroke-width="0.18"/><rect x="58" y="558" width="20" height="2.2" fill="#111111" stroke="#111111" stroke-width="0.18"/><rect x="78" y="558" width="20" height="2.2" fill="#ffffff" stroke="#111111" stroke-width="0.18"/><rect x="98" y="558" width="20" height="2.2" fill="#111111" stroke="#111111" stroke-width="0.18"/><text x="18" y="563.6" font-family="'Helvetica Neue',Helvetica,Arial,sans-serif" font-size="2.1" fill="#111111" font-weight="400" text-anchor="middle">0</text><text x="38" y="563.6" font-family="'Helvetica Neue',Helvetica,Arial,sans-serif" font-size="2.1" fill="#111111" font-weight="400" text-anchor="middle">10</text><text x="58" y="563.6" font-family="'Helvetica Neue',Helvetica,Arial,sans-serif" font-size="2.1" fill="#111111" font-weight="400" text-anchor="middle">20</text><text x="78" y="563.6" font-family="'Helvetica Neue',Helvetica,Arial,sans-serif" font-size="2.1" fill="#111111" font-weight="400" text-anchor="middle">30</text><text x="98" y="563.6" font-family="'Helvetica Neue',Helvetica,Arial,sans-serif" font-size="2.1" fill="#111111" font-weight="400" text-anchor="middle">40</text><text x="118" y="563.6" font-family="'Helvetica Neue',Helvetica,Arial,sans-serif" font-size="2.1" fill="#111111" font-weight="400" text-anchor="middle">50</text><text x="121" y="563.6" font-family="'Helvetica Neue',Helvetica,Arial,sans-serif" font-size="2.1" fill="#111111" font-weight="400" text-anchor="start">m</text><text x="18" y="556" font-family="'Helvetica Neue',Helvetica,Arial,sans-serif" font-size="2.3" fill="#111111" font-weight="600" text-anchor="start">SCALE 1:500</text><text x="18" y="26" font-family="'Helvetica Neue',Helvetica,Arial,sans-serif" font-size="2.4" fill="#8a8a8a" font-weight="700" text-anchor="start" letter-spacing="1">SITE STRATEGY</text><text x="18" y="31.4" font-family="'Helvetica Neue',Helvetica,Arial,sans-serif" font-size="2.2" fill="#111111" font-weight="400" text-anchor="start">The building is set at the centre of a circular</text><text x="18" y="34.7" font-family="'Helvetica Neue',Helvetica,Arial,sans-serif" font-size="2.2" fill="#111111" font-weight="400" text-anchor="start">clearing, addressed from the south. Vehicles are</text><text x="18" y="38" font-family="'Helvetica Neue',Helvetica,Arial,sans-serif" font-size="2.2" fill="#111111" font-weight="400" text-anchor="start">held at a perimeter ring road with 268 spaces;</text><text x="18" y="41.3" font-family="'Helvetica Neue',Helvetica,Arial,sans-serif" font-size="2.2" fill="#111111" font-weight="400" text-anchor="start">the inner 52 m radius is pedestrian only.</text><text x="18" y="44.6" font-family="'Helvetica Neue',Helvetica,Arial,sans-serif" font-size="2.2" fill="#111111" font-weight="400" text-anchor="start"></text><text x="18" y="47.9" font-family="'Helvetica Neue',Helvetica,Arial,sans-serif" font-size="2.2" fill="#111111" font-weight="400" text-anchor="start">Fire appliance access is provided around the</text><text x="18" y="51.2" font-family="'Helvetica Neue',Helvetica,Arial,sans-serif" font-size="2.2" fill="#111111" font-weight="400" text-anchor="start">whole perimeter, within 45 m of every dry riser</text><text x="18" y="54.5" font-family="'Helvetica Neue',Helvetica,Arial,sans-serif" font-size="2.2" fill="#111111" font-weight="400" text-anchor="start">inlet. The courtyard is reached through the</text><text x="18" y="57.8" font-family="'Helvetica Neue',Helvetica,Arial,sans-serif" font-size="2.2" fill="#111111" font-weight="400" text-anchor="start">northern gateway (3 550 clear) and the entrance.</text><text x="18" y="61.1" font-family="'Helvetica Neue',Helvetica,Arial,sans-serif" font-size="2.2" fill="#111111" font-weight="400" text-anchor="start"></text><text x="18" y="64.4" font-family="'Helvetica Neue',Helvetica,Arial,sans-serif" font-size="2.2" fill="#111111" font-weight="400" text-anchor="start">A ground-source borefield sits beneath the</text><text x="18" y="67.7" font-family="'Helvetica Neue',Helvetica,Arial,sans-serif" font-size="2.2" fill="#111111" font-weight="400" text-anchor="start">courtyard: 48 boreholes at 140 m deep.</text></svg>