# test -- generated by ArchiAI engine 0.2.0
# Units: metres. Z up. Origin at the plan centre, ground level.
mtllib model.mtl
v 25.2480 11.7350 0.0000
v 25.1963 12.5240 0.0000
v 25.1963 12.5240 3.9000
v 25.2480 11.7350 3.9000
v 25.0420 13.2996 0.0000
v 25.0420 13.2996 3.9000
v 24.7878 14.0484 0.0000
v 24.7878 14.0484 3.9000
v 24.4381 14.7576 0.0000
v 24.4381 14.7576 3.9000
v 23.9987 15.4151 0.0000
v 23.9987 15.4151 3.9000
v 23.4774 16.0096 0.0000
v 23.4774 16.0096 3.9000
v 22.8828 16.5310 0.0000
v 22.8828 16.5310 3.9000
v 22.2253 16.9704 0.0000
v 22.2253 16.9704 3.9000
v 21.5161 17.3201 0.0000
v 21.5161 17.3201 3.9000
v 20.7673 17.5743 0.0000
v 20.7673 17.5743 3.9000
v 19.9918 17.7286 0.0000
v 19.9918 17.7286 3.9000
v 19.2027 17.7803 0.0000
v 19.2027 17.7803 3.9000
v 16.2027 17.7803 0.0000
v 16.2027 17.7803 3.9000
v 13.2027 17.7803 0.0000
v 13.2027 17.7803 3.9000
v 10.2027 17.7803 0.0000
v 10.2027 17.7803 3.9000
v 7.2027 17.7803 0.0000
v 7.2027 17.7803 3.9000
v 4.2027 17.7803 0.0000
v 4.2027 17.7803 3.9000
v 1.2027 17.7803 0.0000
v 1.2027 17.7803 3.9000
v -1.7973 17.7803 0.0000
v -1.7973 17.7803 3.9000
v -4.7973 17.7803 0.0000
v -4.7973 17.7803 3.9000
v -7.7973 17.7803 0.0000
v -7.7973 17.7803 3.9000
v -10.7973 17.7803 0.0000
v -10.7973 17.7803 3.9000
v -13.7973 17.7803 0.0000
v -13.7973 17.7803 3.9000
v -16.7973 17.7803 0.0000
v -16.7973 17.7803 3.9000
v -19.2027 17.7803 0.0000
v -19.2027 17.7803 3.9000
v -19.9918 17.7286 0.0000
v -19.9918 17.7286 3.9000
v -20.7673 17.5743 0.0000
v -20.7673 17.5743 3.9000
v -21.5161 17.3201 0.0000
v -21.5161 17.3201 3.9000
v -22.2253 16.9704 0.0000
v -22.2253 16.9704 3.9000
v -22.8828 16.5310 0.0000
v -22.8828 16.5310 3.9000
v -23.4774 16.0096 0.0000
v -23.4774 16.0096 3.9000
v -23.9987 15.4151 0.0000
v -23.9987 15.4151 3.9000
v -24.4381 14.7576 0.0000
v -24.4381 14.7576 3.9000
v -24.7878 14.0484 0.0000
v -24.7878 14.0484 3.9000
v -25.0420 13.2996 0.0000
v -25.0420 13.2996 3.9000
v -25.1963 12.5240 0.0000
v -25.1963 12.5240 3.9000
v -25.2480 11.7350 0.0000
v -25.2480 11.7350 3.9000
v -25.2480 8.7350 0.0000
v -25.2480 8.7350 3.9000
v -25.2480 5.7350 0.0000
v -25.2480 5.7350 3.9000
v -25.2480 2.7350 0.0000
v -25.2480 2.7350 3.9000
v -25.2480 -0.2650 0.0000
v -25.2480 -0.2650 3.9000
v -25.2480 -3.2650 0.0000
v -25.2480 -3.2650 3.9000
v -25.2480 -6.2650 0.0000
v -25.2480 -6.2650 3.9000
v -25.2480 -9.2650 0.0000
v -25.2480 -9.2650 3.9000
v -25.2480 -11.7350 0.0000
v -25.2480 -11.7350 3.9000
v -25.1963 -12.5240 0.0000
v -25.1963 -12.5240 3.9000
v -25.0420 -13.2996 0.0000
v -25.0420 -13.2996 3.9000
v -24.7878 -14.0484 0.0000
v -24.7878 -14.0484 3.9000
v -24.4381 -14.7576 0.0000
v -24.4381 -14.7576 3.9000
v -23.9987 -15.4151 0.0000
v -23.9987 -15.4151 3.9000
v -23.4774 -16.0096 0.0000
v -23.4774 -16.0096 3.9000
v -22.8828 -16.5310 0.0000
v -22.8828 -16.5310 3.9000
v -22.2253 -16.9704 0.0000
v -22.2253 -16.9704 3.9000
v -21.5161 -17.3201 0.0000
v -21.5161 -17.3201 3.9000
v -20.7673 -17.5743 0.0000
v -20.7673 -17.5743 3.9000
v -19.9918 -17.7286 0.0000
v -19.9918 -17.7286 3.9000
v -19.2027 -17.7803 0.0000
v -19.2027 -17.7803 3.9000
v -16.2027 -17.7803 0.0000
v -16.2027 -17.7803 3.9000
v -13.2027 -17.7803 0.0000
v -13.2027 -17.7803 3.9000
v -10.2027 -17.7803 0.0000
v -10.2027 -17.7803 3.9000
v -7.2027 -17.7803 0.0000
v -7.2027 -17.7803 3.9000
v -4.2027 -17.7803 0.0000
v -4.2027 -17.7803 3.9000
v -1.2027 -17.7803 0.0000
v -1.2027 -17.7803 3.9000
v 1.7973 -17.7803 0.0000
v 1.7973 -17.7803 3.9000
v 4.7973 -17.7803 0.0000
v 4.7973 -17.7803 3.9000
v 7.7973 -17.7803 0.0000
v 7.7973 -17.7803 3.9000
v 10.7973 -17.7803 0.0000
v 10.7973 -17.7803 3.9000
v 13.7973 -17.7803 0.0000
v 13.7973 -17.7803 3.9000
v 16.7973 -17.7803 0.0000
v 16.7973 -17.7803 3.9000
v 19.2027 -17.7803 0.0000
v 19.2027 -17.7803 3.9000
v 19.9918 -17.7286 0.0000
v 19.9918 -17.7286 3.9000
v 20.7673 -17.5743 0.0000
v 20.7673 -17.5743 3.9000
v 21.5161 -17.3201 0.0000
v 21.5161 -17.3201 3.9000
v 22.2253 -16.9704 0.0000
v 22.2253 -16.9704 3.9000
v 22.8828 -16.5310 0.0000
v 22.8828 -16.5310 3.9000
v 23.4774 -16.0096 0.0000
v 23.4774 -16.0096 3.9000
v 23.9987 -15.4151 0.0000
v 23.9987 -15.4151 3.9000
v 24.4381 -14.7576 0.0000
v 24.4381 -14.7576 3.9000
v 24.7878 -14.0484 0.0000
v 24.7878 -14.0484 3.9000
v 25.0420 -13.2996 0.0000
v 25.0420 -13.2996 3.9000
v 25.1963 -12.5240 0.0000
v 25.1963 -12.5240 3.9000
v 25.2480 -11.7350 0.0000
v 25.2480 -11.7350 3.9000
v 25.2480 -8.7350 0.0000
v 25.2480 -8.7350 3.9000
v 25.2480 -5.7350 0.0000
v 25.2480 -5.7350 3.9000
v 25.2480 -2.7350 0.0000
v 25.2480 -2.7350 3.9000
v 25.2480 0.2650 0.0000
v 25.2480 0.2650 3.9000
v 25.2480 3.2650 0.0000
v 25.2480 3.2650 3.9000
v 25.2480 6.2650 0.0000
v 25.2480 6.2650 3.9000
v 25.2480 9.2650 0.0000
v 25.2480 9.2650 3.9000
v 10.6682 -2.4892 0.0000
v 10.6347 -2.9998 0.0000
v 10.6347 -2.9998 3.9000
v 10.6682 -2.4892 3.9000
v 10.5349 -3.5017 0.0000
v 10.5349 -3.5017 3.9000
v 10.3704 -3.9862 0.0000
v 10.3704 -3.9862 3.9000
v 10.1441 -4.4451 0.0000
v 10.1441 -4.4451 3.9000
v 9.8598 -4.8705 0.0000
v 9.8598 -4.8705 3.9000
v 9.5225 -5.2552 0.0000
v 9.5225 -5.2552 3.9000
v 9.1378 -5.5926 0.0000
v 9.1378 -5.5926 3.9000
v 8.7123 -5.8768 0.0000
v 8.7123 -5.8768 3.9000
v 8.2534 -6.1031 0.0000
v 8.2534 -6.1031 3.9000
v 7.7689 -6.2676 0.0000
v 7.7689 -6.2676 3.9000
v 7.2671 -6.3674 0.0000
v 7.2671 -6.3674 3.9000
v 6.7565 -6.4009 0.0000
v 6.7565 -6.4009 3.9000
v 3.7565 -6.4009 0.0000
v 3.7565 -6.4009 3.9000
v 0.7565 -6.4009 0.0000
v 0.7565 -6.4009 3.9000
v -2.2435 -6.4009 0.0000
v -2.2435 -6.4009 3.9000
v -5.2435 -6.4009 0.0000
v -5.2435 -6.4009 3.9000
v -6.7565 -6.4009 0.0000
v -6.7565 -6.4009 3.9000
v -7.2671 -6.3674 0.0000
v -7.2671 -6.3674 3.9000
v -7.7689 -6.2676 0.0000
v -7.7689 -6.2676 3.9000
v -8.2534 -6.1031 0.0000
v -8.2534 -6.1031 3.9000
v -8.7123 -5.8768 0.0000
v -8.7123 -5.8768 3.9000
v -9.1378 -5.5926 0.0000
v -9.1378 -5.5926 3.9000
v -9.5225 -5.2552 0.0000
v -9.5225 -5.2552 3.9000
v -9.8598 -4.8705 0.0000
v -9.8598 -4.8705 3.9000
v -10.1441 -4.4451 0.0000
v -10.1441 -4.4451 3.9000
v -10.3704 -3.9862 0.0000
v -10.3704 -3.9862 3.9000
v -10.5349 -3.5017 0.0000
v -10.5349 -3.5017 3.9000
v -10.6347 -2.9998 0.0000
v -10.6347 -2.9998 3.9000
v -10.6682 -2.4892 0.0000
v -10.6682 -2.4892 3.9000
v -10.6682 0.5108 0.0000
v -10.6682 0.5108 3.9000
v -10.6682 2.4892 0.0000
v -10.6682 2.4892 3.9000
v -10.6347 2.9998 0.0000
v -10.6347 2.9998 3.9000
v -10.5349 3.5017 0.0000
v -10.5349 3.5017 3.9000
v -10.3704 3.9862 0.0000
v -10.3704 3.9862 3.9000
v -10.1441 4.4451 0.0000
v -10.1441 4.4451 3.9000
v -9.8598 4.8705 0.0000
v -9.8598 4.8705 3.9000
v -9.5225 5.2552 0.0000
v -9.5225 5.2552 3.9000
v -9.1378 5.5926 0.0000
v -9.1378 5.5926 3.9000
v -8.7123 5.8768 0.0000
v -8.7123 5.8768 3.9000
v -8.2534 6.1031 0.0000
v -8.2534 6.1031 3.9000
v -7.7689 6.2676 0.0000
v -7.7689 6.2676 3.9000
v -7.2671 6.3674 0.0000
v -7.2671 6.3674 3.9000
v -6.7565 6.4009 0.0000
v -6.7565 6.4009 3.9000
v -3.7565 6.4009 0.0000
v -3.7565 6.4009 3.9000
v -0.7565 6.4009 0.0000
v -0.7565 6.4009 3.9000
v 2.2435 6.4009 0.0000
v 2.2435 6.4009 3.9000
v 5.2435 6.4009 0.0000
v 5.2435 6.4009 3.9000
v 6.7565 6.4009 0.0000
v 6.7565 6.4009 3.9000
v 7.2671 6.3674 0.0000
v 7.2671 6.3674 3.9000
v 7.7689 6.2676 0.0000
v 7.7689 6.2676 3.9000
v 8.2534 6.1031 0.0000
v 8.2534 6.1031 3.9000
v 8.7123 5.8768 0.0000
v 8.7123 5.8768 3.9000
v 9.1378 5.5926 0.0000
v 9.1378 5.5926 3.9000
v 9.5225 5.2552 0.0000
v 9.5225 5.2552 3.9000
v 9.8598 4.8705 0.0000
v 9.8598 4.8705 3.9000
v 10.1441 4.4451 0.0000
v 10.1441 4.4451 3.9000
v 10.3704 3.9862 0.0000
v 10.3704 3.9862 3.9000
v 10.5349 3.5017 0.0000
v 10.5349 3.5017 3.9000
v 10.6347 2.9998 0.0000
v 10.6347 2.9998 3.9000
v 10.6682 2.4892 0.0000
v 10.6682 2.4892 3.9000
v 10.6682 -0.5108 0.0000
v 10.6682 -0.5108 3.9000
v 25.1963 12.5240 7.8000
v 25.2480 11.7350 7.8000
v 25.0420 13.2996 7.8000
v 24.7878 14.0484 7.8000
v 24.4381 14.7576 7.8000
v 23.9987 15.4151 7.8000
v 23.4774 16.0096 7.8000
v 22.8828 16.5310 7.8000
v 22.2253 16.9704 7.8000
v 21.5161 17.3201 7.8000
v 20.7673 17.5743 7.8000
v 19.9918 17.7286 7.8000
v 19.2027 17.7803 7.8000
v 16.2027 17.7803 7.8000
v 13.2027 17.7803 7.8000
v 10.2027 17.7803 7.8000
v 7.2027 17.7803 7.8000
v 4.2027 17.7803 7.8000
v 1.2027 17.7803 7.8000
v -1.7973 17.7803 7.8000
v -4.7973 17.7803 7.8000
v -7.7973 17.7803 7.8000
v -10.7973 17.7803 7.8000
v -13.7973 17.7803 7.8000
v -16.7973 17.7803 7.8000
v -19.2027 17.7803 7.8000
v -19.9918 17.7286 7.8000
v -20.7673 17.5743 7.8000
v -21.5161 17.3201 7.8000
v -22.2253 16.9704 7.8000
v -22.8828 16.5310 7.8000
v -23.4774 16.0096 7.8000
v -23.9987 15.4151 7.8000
v -24.4381 14.7576 7.8000
v -24.7878 14.0484 7.8000
v -25.0420 13.2996 7.8000
v -25.1963 12.5240 7.8000
v -25.2480 11.7350 7.8000
v -25.2480 8.7350 7.8000
v -25.2480 5.7350 7.8000
v -25.2480 2.7350 7.8000
v -25.2480 -0.2650 7.8000
v -25.2480 -3.2650 7.8000
v -25.2480 -6.2650 7.8000
v -25.2480 -9.2650 7.8000
v -25.2480 -11.7350 7.8000
v -25.1963 -12.5240 7.8000
v -25.0420 -13.2996 7.8000
v -24.7878 -14.0484 7.8000
v -24.4381 -14.7576 7.8000
v -23.9987 -15.4151 7.8000
v -23.4774 -16.0096 7.8000
v -22.8828 -16.5310 7.8000
v -22.2253 -16.9704 7.8000
v -21.5161 -17.3201 7.8000
v -20.7673 -17.5743 7.8000
v -19.9918 -17.7286 7.8000
v -19.2027 -17.7803 7.8000
v -16.2027 -17.7803 7.8000
v -13.2027 -17.7803 7.8000
v -10.2027 -17.7803 7.8000
v -7.2027 -17.7803 7.8000
v -4.2027 -17.7803 7.8000
v -1.2027 -17.7803 7.8000
v 1.7973 -17.7803 7.8000
v 4.7973 -17.7803 7.8000
v 7.7973 -17.7803 7.8000
v 10.7973 -17.7803 7.8000
v 13.7973 -17.7803 7.8000
v 16.7973 -17.7803 7.8000
v 19.2027 -17.7803 7.8000
v 19.9918 -17.7286 7.8000
v 20.7673 -17.5743 7.8000
v 21.5161 -17.3201 7.8000
v 22.2253 -16.9704 7.8000
v 22.8828 -16.5310 7.8000
v 23.4774 -16.0096 7.8000
v 23.9987 -15.4151 7.8000
v 24.4381 -14.7576 7.8000
v 24.7878 -14.0484 7.8000
v 25.0420 -13.2996 7.8000
v 25.1963 -12.5240 7.8000
v 25.2480 -11.7350 7.8000
v 25.2480 -8.7350 7.8000
v 25.2480 -5.7350 7.8000
v 25.2480 -2.7350 7.8000
v 25.2480 0.2650 7.8000
v 25.2480 3.2650 7.8000
v 25.2480 6.2650 7.8000
v 25.2480 9.2650 7.8000
v 10.6347 -2.9998 7.8000
v 10.6682 -2.4892 7.8000
v 10.5349 -3.5017 7.8000
v 10.3704 -3.9862 7.8000
v 10.1441 -4.4451 7.8000
v 9.8598 -4.8705 7.8000
v 9.5225 -5.2552 7.8000
v 9.1378 -5.5926 7.8000
v 8.7123 -5.8768 7.8000
v 8.2534 -6.1031 7.8000
v 7.7689 -6.2676 7.8000
v 7.2671 -6.3674 7.8000
v 6.7565 -6.4009 7.8000
v 3.7565 -6.4009 7.8000
v 0.7565 -6.4009 7.8000
v -2.2435 -6.4009 7.8000
v -5.2435 -6.4009 7.8000
v -6.7565 -6.4009 7.8000
v -7.2671 -6.3674 7.8000
v -7.7689 -6.2676 7.8000
v -8.2534 -6.1031 7.8000
v -8.7123 -5.8768 7.8000
v -9.1378 -5.5926 7.8000
v -9.5225 -5.2552 7.8000
v -9.8598 -4.8705 7.8000
v -10.1441 -4.4451 7.8000
v -10.3704 -3.9862 7.8000
v -10.5349 -3.5017 7.8000
v -10.6347 -2.9998 7.8000
v -10.6682 -2.4892 7.8000
v -10.6682 0.5108 7.8000
v -10.6682 2.4892 7.8000
v -10.6347 2.9998 7.8000
v -10.5349 3.5017 7.8000
v -10.3704 3.9862 7.8000
v -10.1441 4.4451 7.8000
v -9.8598 4.8705 7.8000
v -9.5225 5.2552 7.8000
v -9.1378 5.5926 7.8000
v -8.7123 5.8768 7.8000
v -8.2534 6.1031 7.8000
v -7.7689 6.2676 7.8000
v -7.2671 6.3674 7.8000
v -6.7565 6.4009 7.8000
v -3.7565 6.4009 7.8000
v -0.7565 6.4009 7.8000
v 2.2435 6.4009 7.8000
v 5.2435 6.4009 7.8000
v 6.7565 6.4009 7.8000
v 7.2671 6.3674 7.8000
v 7.7689 6.2676 7.8000
v 8.2534 6.1031 7.8000
v 8.7123 5.8768 7.8000
v 9.1378 5.5926 7.8000
v 9.5225 5.2552 7.8000
v 9.8598 4.8705 7.8000
v 10.1441 4.4451 7.8000
v 10.3704 3.9862 7.8000
v 10.5349 3.5017 7.8000
v 10.6347 2.9998 7.8000
v 10.6682 2.4892 7.8000
v 10.6682 -0.5108 7.8000
v 25.1963 12.5240 11.7000
v 25.2480 11.7350 11.7000
v 25.0420 13.2996 11.7000
v 24.7878 14.0484 11.7000
v 24.4381 14.7576 11.7000
v 23.9987 15.4151 11.7000
v 23.4774 16.0096 11.7000
v 22.8828 16.5310 11.7000
v 22.2253 16.9704 11.7000
v 21.5161 17.3201 11.7000
v 20.7673 17.5743 11.7000
v 19.9918 17.7286 11.7000
v 19.2027 17.7803 11.7000
v 16.2027 17.7803 11.7000
v 13.2027 17.7803 11.7000
v 10.2027 17.7803 11.7000
v 7.2027 17.7803 11.7000
v 4.2027 17.7803 11.7000
v 1.2027 17.7803 11.7000
v -1.7973 17.7803 11.7000
v -4.7973 17.7803 11.7000
v -7.7973 17.7803 11.7000
v -10.7973 17.7803 11.7000
v -13.7973 17.7803 11.7000
v -16.7973 17.7803 11.7000
v -19.2027 17.7803 11.7000
v -19.9918 17.7286 11.7000
v -20.7673 17.5743 11.7000
v -21.5161 17.3201 11.7000
v -22.2253 16.9704 11.7000
v -22.8828 16.5310 11.7000
v -23.4774 16.0096 11.7000
v -23.9987 15.4151 11.7000
v -24.4381 14.7576 11.7000
v -24.7878 14.0484 11.7000
v -25.0420 13.2996 11.7000
v -25.1963 12.5240 11.7000
v -25.2480 11.7350 11.7000
v -25.2480 8.7350 11.7000
v -25.2480 5.7350 11.7000
v -25.2480 2.7350 11.7000
v -25.2480 -0.2650 11.7000
v -25.2480 -3.2650 11.7000
v -25.2480 -6.2650 11.7000
v -25.2480 -9.2650 11.7000
v -25.2480 -11.7350 11.7000
v -25.1963 -12.5240 11.7000
v -25.0420 -13.2996 11.7000
v -24.7878 -14.0484 11.7000
v -24.4381 -14.7576 11.7000
v -23.9987 -15.4151 11.7000
v -23.4774 -16.0096 11.7000
v -22.8828 -16.5310 11.7000
v -22.2253 -16.9704 11.7000
v -21.5161 -17.3201 11.7000
v -20.7673 -17.5743 11.7000
v -19.9918 -17.7286 11.7000
v -19.2027 -17.7803 11.7000
v -16.2027 -17.7803 11.7000
v -13.2027 -17.7803 11.7000
v -10.2027 -17.7803 11.7000
v -7.2027 -17.7803 11.7000
v -4.2027 -17.7803 11.7000
v -1.2027 -17.7803 11.7000
v 1.7973 -17.7803 11.7000
v 4.7973 -17.7803 11.7000
v 7.7973 -17.7803 11.7000
v 10.7973 -17.7803 11.7000
v 13.7973 -17.7803 11.7000
v 16.7973 -17.7803 11.7000
v 19.2027 -17.7803 11.7000
v 19.9918 -17.7286 11.7000
v 20.7673 -17.5743 11.7000
v 21.5161 -17.3201 11.7000
v 22.2253 -16.9704 11.7000
v 22.8828 -16.5310 11.7000
v 23.4774 -16.0096 11.7000
v 23.9987 -15.4151 11.7000
v 24.4381 -14.7576 11.7000
v 24.7878 -14.0484 11.7000
v 25.0420 -13.2996 11.7000
v 25.1963 -12.5240 11.7000
v 25.2480 -11.7350 11.7000
v 25.2480 -8.7350 11.7000
v 25.2480 -5.7350 11.7000
v 25.2480 -2.7350 11.7000
v 25.2480 0.2650 11.7000
v 25.2480 3.2650 11.7000
v 25.2480 6.2650 11.7000
v 25.2480 9.2650 11.7000
v 10.6347 -2.9998 11.7000
v 10.6682 -2.4892 11.7000
v 10.5349 -3.5017 11.7000
v 10.3704 -3.9862 11.7000
v 10.1441 -4.4451 11.7000
v 9.8598 -4.8705 11.7000
v 9.5225 -5.2552 11.7000
v 9.1378 -5.5926 11.7000
v 8.7123 -5.8768 11.7000
v 8.2534 -6.1031 11.7000
v 7.7689 -6.2676 11.7000
v 7.2671 -6.3674 11.7000
v 6.7565 -6.4009 11.7000
v 3.7565 -6.4009 11.7000
v 0.7565 -6.4009 11.7000
v -2.2435 -6.4009 11.7000
v -5.2435 -6.4009 11.7000
v -6.7565 -6.4009 11.7000
v -7.2671 -6.3674 11.7000
v -7.7689 -6.2676 11.7000
v -8.2534 -6.1031 11.7000
v -8.7123 -5.8768 11.7000
v -9.1378 -5.5926 11.7000
v -9.5225 -5.2552 11.7000
v -9.8598 -4.8705 11.7000
v -10.1441 -4.4451 11.7000
v -10.3704 -3.9862 11.7000
v -10.5349 -3.5017 11.7000
v -10.6347 -2.9998 11.7000
v -10.6682 -2.4892 11.7000
v -10.6682 0.5108 11.7000
v -10.6682 2.4892 11.7000
v -10.6347 2.9998 11.7000
v -10.5349 3.5017 11.7000
v -10.3704 3.9862 11.7000
v -10.1441 4.4451 11.7000
v -9.8598 4.8705 11.7000
v -9.5225 5.2552 11.7000
v -9.1378 5.5926 11.7000
v -8.7123 5.8768 11.7000
v -8.2534 6.1031 11.7000
v -7.7689 6.2676 11.7000
v -7.2671 6.3674 11.7000
v -6.7565 6.4009 11.7000
v -3.7565 6.4009 11.7000
v -0.7565 6.4009 11.7000
v 2.2435 6.4009 11.7000
v 5.2435 6.4009 11.7000
v 6.7565 6.4009 11.7000
v 7.2671 6.3674 11.7000
v 7.7689 6.2676 11.7000
v 8.2534 6.1031 11.7000
v 8.7123 5.8768 11.7000
v 9.1378 5.5926 11.7000
v 9.5225 5.2552 11.7000
v 9.8598 4.8705 11.7000
v 10.1441 4.4451 11.7000
v 10.3704 3.9862 11.7000
v 10.5349 3.5017 11.7000
v 10.6347 2.9998 11.7000
v 10.6682 2.4892 11.7000
v 10.6682 -0.5108 11.7000
v 25.1963 12.5240 16.7000
v 25.2480 11.7350 16.7000
v 25.0420 13.2996 16.7000
v 24.7878 14.0484 16.7000
v 24.4381 14.7576 16.7000
v 23.9987 15.4151 16.7000
v 23.4774 16.0096 16.7000
v 22.8828 16.5310 16.7000
v 22.2253 16.9704 16.7000
v 21.5161 17.3201 16.7000
v 20.7673 17.5743 16.7000
v 19.9918 17.7286 16.7000
v 19.2027 17.7803 16.7000
v 16.2027 17.7803 16.7000
v 13.2027 17.7803 16.7000
v 10.2027 17.7803 16.7000
v 7.2027 17.7803 16.7000
v 4.2027 17.7803 16.7000
v 1.2027 17.7803 16.7000
v -1.7973 17.7803 16.7000
v -4.7973 17.7803 16.7000
v -7.7973 17.7803 16.7000
v -10.7973 17.7803 16.7000
v -13.7973 17.7803 16.7000
v -16.7973 17.7803 16.7000
v -19.2027 17.7803 16.7000
v -19.9918 17.7286 16.7000
v -20.7673 17.5743 16.7000
v -21.5161 17.3201 16.7000
v -22.2253 16.9704 16.7000
v -22.8828 16.5310 16.7000
v -23.4774 16.0096 16.7000
v -23.9987 15.4151 16.7000
v -24.4381 14.7576 16.7000
v -24.7878 14.0484 16.7000
v -25.0420 13.2996 16.7000
v -25.1963 12.5240 16.7000
v -25.2480 11.7350 16.7000
v -25.2480 8.7350 16.7000
v -25.2480 5.7350 16.7000
v -25.2480 2.7350 16.7000
v -25.2480 -0.2650 16.7000
v -25.2480 -3.2650 16.7000
v -25.2480 -6.2650 16.7000
v -25.2480 -9.2650 16.7000
v -25.2480 -11.7350 16.7000
v -25.1963 -12.5240 16.7000
v -25.0420 -13.2996 16.7000
v -24.7878 -14.0484 16.7000
v -24.4381 -14.7576 16.7000
v -23.9987 -15.4151 16.7000
v -23.4774 -16.0096 16.7000
v -22.8828 -16.5310 16.7000
v -22.2253 -16.9704 16.7000
v -21.5161 -17.3201 16.7000
v -20.7673 -17.5743 16.7000
v -19.9918 -17.7286 16.7000
v -19.2027 -17.7803 16.7000
v -16.2027 -17.7803 16.7000
v -13.2027 -17.7803 16.7000
v -10.2027 -17.7803 16.7000
v -7.2027 -17.7803 16.7000
v -4.2027 -17.7803 16.7000
v -1.2027 -17.7803 16.7000
v 1.7973 -17.7803 16.7000
v 4.7973 -17.7803 16.7000
v 7.7973 -17.7803 16.7000
v 10.7973 -17.7803 16.7000
v 13.7973 -17.7803 16.7000
v 16.7973 -17.7803 16.7000
v 19.2027 -17.7803 16.7000
v 19.9918 -17.7286 16.7000
v 20.7673 -17.5743 16.7000
v 21.5161 -17.3201 16.7000
v 22.2253 -16.9704 16.7000
v 22.8828 -16.5310 16.7000
v 23.4774 -16.0096 16.7000
v 23.9987 -15.4151 16.7000
v 24.4381 -14.7576 16.7000
v 24.7878 -14.0484 16.7000
v 25.0420 -13.2996 16.7000
v 25.1963 -12.5240 16.7000
v 25.2480 -11.7350 16.7000
v 25.2480 -8.7350 16.7000
v 25.2480 -5.7350 16.7000
v 25.2480 -2.7350 16.7000
v 25.2480 0.2650 16.7000
v 25.2480 3.2650 16.7000
v 25.2480 6.2650 16.7000
v 25.2480 9.2650 16.7000
v 10.6347 -2.9998 16.7000
v 10.6682 -2.4892 16.7000
v 10.5349 -3.5017 16.7000
v 10.3704 -3.9862 16.7000
v 10.1441 -4.4451 16.7000
v 9.8598 -4.8705 16.7000
v 9.5225 -5.2552 16.7000
v 9.1378 -5.5926 16.7000
v 8.7123 -5.8768 16.7000
v 8.2534 -6.1031 16.7000
v 7.7689 -6.2676 16.7000
v 7.2671 -6.3674 16.7000
v 6.7565 -6.4009 16.7000
v 3.7565 -6.4009 16.7000
v 0.7565 -6.4009 16.7000
v -2.2435 -6.4009 16.7000
v -5.2435 -6.4009 16.7000
v -6.7565 -6.4009 16.7000
v -7.2671 -6.3674 16.7000
v -7.7689 -6.2676 16.7000
v -8.2534 -6.1031 16.7000
v -8.7123 -5.8768 16.7000
v -9.1378 -5.5926 16.7000
v -9.5225 -5.2552 16.7000
v -9.8598 -4.8705 16.7000
v -10.1441 -4.4451 16.7000
v -10.3704 -3.9862 16.7000
v -10.5349 -3.5017 16.7000
v -10.6347 -2.9998 16.7000
v -10.6682 -2.4892 16.7000
v -10.6682 0.5108 16.7000
v -10.6682 2.4892 16.7000
v -10.6347 2.9998 16.7000
v -10.5349 3.5017 16.7000
v -10.3704 3.9862 16.7000
v -10.1441 4.4451 16.7000
v -9.8598 4.8705 16.7000
v -9.5225 5.2552 16.7000
v -9.1378 5.5926 16.7000
v -8.7123 5.8768 16.7000
v -8.2534 6.1031 16.7000
v -7.7689 6.2676 16.7000
v -7.2671 6.3674 16.7000
v -6.7565 6.4009 16.7000
v -3.7565 6.4009 16.7000
v -0.7565 6.4009 16.7000
v 2.2435 6.4009 16.7000
v 5.2435 6.4009 16.7000
v 6.7565 6.4009 16.7000
v 7.2671 6.3674 16.7000
v 7.7689 6.2676 16.7000
v 8.2534 6.1031 16.7000
v 8.7123 5.8768 16.7000
v 9.1378 5.5926 16.7000
v 9.5225 5.2552 16.7000
v 9.8598 4.8705 16.7000
v 10.1441 4.4451 16.7000
v 10.3704 3.9862 16.7000
v 10.5349 3.5017 16.7000
v 10.6347 2.9998 16.7000
v 10.6682 2.4892 16.7000
v 10.6682 -0.5108 16.7000
v 25.2480 11.7350 15.6000
v 25.1963 12.5240 15.6000
v 25.0420 13.2996 15.6000
v 24.7878 14.0484 15.6000
v 24.4381 14.7576 15.6000
v 23.9987 15.4151 15.6000
v 23.4774 16.0096 15.6000
v 22.8828 16.5310 15.6000
v 22.2253 16.9704 15.6000
v 21.5161 17.3201 15.6000
v 20.7673 17.5743 15.6000
v 19.9918 17.7286 15.6000
v 19.2027 17.7803 15.6000
v 15.2027 17.7803 15.6000
v 11.2027 17.7803 15.6000
v 7.2027 17.7803 15.6000
v 3.2027 17.7803 15.6000
v -0.7973 17.7803 15.6000
v -4.7973 17.7803 15.6000
v -8.7973 17.7803 15.6000
v -12.7973 17.7803 15.6000
v -16.7973 17.7803 15.6000
v -19.2027 17.7803 15.6000
v -19.9918 17.7286 15.6000
v -20.7673 17.5743 15.6000
v -21.5161 17.3201 15.6000
v -22.2253 16.9704 15.6000
v -22.8828 16.5310 15.6000
v -23.4774 16.0096 15.6000
v -23.9987 15.4151 15.6000
v -24.4381 14.7576 15.6000
v -24.7878 14.0484 15.6000
v -25.0420 13.2996 15.6000
v -25.1963 12.5240 15.6000
v -25.2480 11.7350 15.6000
v -25.2480 7.7350 15.6000
v -25.2480 3.7350 15.6000
v -25.2480 -0.2650 15.6000
v -25.2480 -4.2650 15.6000
v -25.2480 -8.2650 15.6000
v -25.2480 -11.7350 15.6000
v -25.1963 -12.5240 15.6000
v -25.0420 -13.2996 15.6000
v -24.7878 -14.0484 15.6000
v -24.4381 -14.7576 15.6000
v -23.9987 -15.4151 15.6000
v -23.4774 -16.0096 15.6000
v -22.8828 -16.5310 15.6000
v -22.2253 -16.9704 15.6000
v -21.5161 -17.3201 15.6000
v -20.7673 -17.5743 15.6000
v -19.9918 -17.7286 15.6000
v -19.2027 -17.7803 15.6000
v -15.2027 -17.7803 15.6000
v -11.2027 -17.7803 15.6000
v -7.2027 -17.7803 15.6000
v -3.2027 -17.7803 15.6000
v 0.7973 -17.7803 15.6000
v 4.7973 -17.7803 15.6000
v 8.7973 -17.7803 15.6000
v 12.7973 -17.7803 15.6000
v 16.7973 -17.7803 15.6000
v 19.2027 -17.7803 15.6000
v 19.9918 -17.7286 15.6000
v 20.7673 -17.5743 15.6000
v 21.5161 -17.3201 15.6000
v 22.2253 -16.9704 15.6000
v 22.8828 -16.5310 15.6000
v 23.4774 -16.0096 15.6000
v 23.9987 -15.4151 15.6000
v 24.4381 -14.7576 15.6000
v 24.7878 -14.0484 15.6000
v 25.0420 -13.2996 15.6000
v 25.1963 -12.5240 15.6000
v 25.2480 -11.7350 15.6000
v 25.2480 -7.7350 15.6000
v 25.2480 -3.7350 15.6000
v 25.2480 0.2650 15.6000
v 25.2480 4.2650 15.6000
v 25.2480 8.2650 15.6000
g wall
o wall
usemtl wall
f 1 2 3 4
f 2 5 6 3
f 5 7 8 6
f 7 9 10 8
f 9 11 12 10
f 11 13 14 12
f 13 15 16 14
f 15 17 18 16
f 17 19 20 18
f 19 21 22 20
f 21 23 24 22
f 23 25 26 24
f 25 27 28 26
f 27 29 30 28
f 29 31 32 30
f 31 33 34 32
f 33 35 36 34
f 35 37 38 36
f 37 39 40 38
f 39 41 42 40
f 41 43 44 42
f 43 45 46 44
f 45 47 48 46
f 47 49 50 48
f 49 51 52 50
f 51 53 54 52
f 53 55 56 54
f 55 57 58 56
f 57 59 60 58
f 59 61 62 60
f 61 63 64 62
f 63 65 66 64
f 65 67 68 66
f 67 69 70 68
f 69 71 72 70
f 71 73 74 72
f 73 75 76 74
f 75 77 78 76
f 77 79 80 78
f 79 81 82 80
f 81 83 84 82
f 83 85 86 84
f 85 87 88 86
f 87 89 90 88
f 89 91 92 90
f 91 93 94 92
f 93 95 96 94
f 95 97 98 96
f 97 99 100 98
f 99 101 102 100
f 101 103 104 102
f 103 105 106 104
f 105 107 108 106
f 107 109 110 108
f 109 111 112 110
f 111 113 114 112
f 113 115 116 114
f 115 117 118 116
f 117 119 120 118
f 119 121 122 120
f 121 123 124 122
f 123 125 126 124
f 125 127 128 126
f 127 129 130 128
f 129 131 132 130
f 131 133 134 132
f 133 135 136 134
f 135 137 138 136
f 137 139 140 138
f 139 141 142 140
f 141 143 144 142
f 143 145 146 144
f 145 147 148 146
f 147 149 150 148
f 149 151 152 150
f 151 153 154 152
f 153 155 156 154
f 155 157 158 156
f 157 159 160 158
f 159 161 162 160
f 161 163 164 162
f 163 165 166 164
f 165 167 168 166
f 167 169 170 168
f 169 171 172 170
f 171 173 174 172
f 173 175 176 174
f 175 177 178 176
f 177 179 180 178
f 179 1 4 180
f 181 182 183 184
f 182 185 186 183
f 185 187 188 186
f 187 189 190 188
f 189 191 192 190
f 191 193 194 192
f 193 195 196 194
f 195 197 198 196
f 197 199 200 198
f 199 201 202 200
f 201 203 204 202
f 203 205 206 204
f 205 207 208 206
f 207 209 210 208
f 209 211 212 210
f 211 213 214 212
f 213 215 216 214
f 215 217 218 216
f 217 219 220 218
f 219 221 222 220
f 221 223 224 222
f 223 225 226 224
f 225 227 228 226
f 227 229 230 228
f 229 231 232 230
f 231 233 234 232
f 233 235 236 234
f 235 237 238 236
f 237 239 240 238
f 239 241 242 240
f 241 243 244 242
f 243 245 246 244
f 245 247 248 246
f 247 249 250 248
f 249 251 252 250
f 251 253 254 252
f 253 255 256 254
f 255 257 258 256
f 257 259 260 258
f 259 261 262 260
f 261 263 264 262
f 263 265 266 264
f 265 267 268 266
f 267 269 270 268
f 269 271 272 270
f 271 273 274 272
f 273 275 276 274
f 275 277 278 276
f 277 279 280 278
f 279 281 282 280
f 281 283 284 282
f 283 285 286 284
f 285 287 288 286
f 287 289 290 288
f 289 291 292 290
f 291 293 294 292
f 293 295 296 294
f 295 297 298 296
f 297 299 300 298
f 299 301 302 300
f 301 303 304 302
f 303 181 184 304
f 4 3 305 306
f 3 6 307 305
f 6 8 308 307
f 8 10 309 308
f 10 12 310 309
f 12 14 311 310
f 14 16 312 311
f 16 18 313 312
f 18 20 314 313
f 20 22 315 314
f 22 24 316 315
f 24 26 317 316
f 26 28 318 317
f 28 30 319 318
f 30 32 320 319
f 32 34 321 320
f 34 36 322 321
f 36 38 323 322
f 38 40 324 323
f 40 42 325 324
f 42 44 326 325
f 44 46 327 326
f 46 48 328 327
f 48 50 329 328
f 50 52 330 329
f 52 54 331 330
f 54 56 332 331
f 56 58 333 332
f 58 60 334 333
f 60 62 335 334
f 62 64 336 335
f 64 66 337 336
f 66 68 338 337
f 68 70 339 338
f 70 72 340 339
f 72 74 341 340
f 74 76 342 341
f 76 78 343 342
f 78 80 344 343
f 80 82 345 344
f 82 84 346 345
f 84 86 347 346
f 86 88 348 347
f 88 90 349 348
f 90 92 350 349
f 92 94 351 350
f 94 96 352 351
f 96 98 353 352
f 98 100 354 353
f 100 102 355 354
f 102 104 356 355
f 104 106 357 356
f 106 108 358 357
f 108 110 359 358
f 110 112 360 359
f 112 114 361 360
f 114 116 362 361
f 116 118 363 362
f 118 120 364 363
f 120 122 365 364
f 122 124 366 365
f 124 126 367 366
f 126 128 368 367
f 128 130 369 368
f 130 132 370 369
f 132 134 371 370
f 134 136 372 371
f 136 138 373 372
f 138 140 374 373
f 140 142 375 374
f 142 144 376 375
f 144 146 377 376
f 146 148 378 377
f 148 150 379 378
f 150 152 380 379
f 152 154 381 380
f 154 156 382 381
f 156 158 383 382
f 158 160 384 383
f 160 162 385 384
f 162 164 386 385
f 164 166 387 386
f 166 168 388 387
f 168 170 389 388
f 170 172 390 389
f 172 174 391 390
f 174 176 392 391
f 176 178 393 392
f 178 180 394 393
f 180 4 306 394
f 184 183 395 396
f 183 186 397 395
f 186 188 398 397
f 188 190 399 398
f 190 192 400 399
f 192 194 401 400
f 194 196 402 401
f 196 198 403 402
f 198 200 404 403
f 200 202 405 404
f 202 204 406 405
f 204 206 407 406
f 206 208 408 407
f 208 210 409 408
f 210 212 410 409
f 212 214 411 410
f 214 216 412 411
f 216 218 413 412
f 218 220 414 413
f 220 222 415 414
f 222 224 416 415
f 224 226 417 416
f 226 228 418 417
f 228 230 419 418
f 230 232 420 419
f 232 234 421 420
f 234 236 422 421
f 236 238 423 422
f 238 240 424 423
f 240 242 425 424
f 242 244 426 425
f 244 246 427 426
f 246 248 428 427
f 248 250 429 428
f 250 252 430 429
f 252 254 431 430
f 254 256 432 431
f 256 258 433 432
f 258 260 434 433
f 260 262 435 434
f 262 264 436 435
f 264 266 437 436
f 266 268 438 437
f 268 270 439 438
f 270 272 440 439
f 272 274 441 440
f 274 276 442 441
f 276 278 443 442
f 278 280 444 443
f 280 282 445 444
f 282 284 446 445
f 284 286 447 446
f 286 288 448 447
f 288 290 449 448
f 290 292 450 449
f 292 294 451 450
f 294 296 452 451
f 296 298 453 452
f 298 300 454 453
f 300 302 455 454
f 302 304 456 455
f 304 184 396 456
f 306 305 457 458
f 305 307 459 457
f 307 308 460 459
f 308 309 461 460
f 309 310 462 461
f 310 311 463 462
f 311 312 464 463
f 312 313 465 464
f 313 314 466 465
f 314 315 467 466
f 315 316 468 467
f 316 317 469 468
f 317 318 470 469
f 318 319 471 470
f 319 320 472 471
f 320 321 473 472
f 321 322 474 473
f 322 323 475 474
f 323 324 476 475
f 324 325 477 476
f 325 326 478 477
f 326 327 479 478
f 327 328 480 479
f 328 329 481 480
f 329 330 482 481
f 330 331 483 482
f 331 332 484 483
f 332 333 485 484
f 333 334 486 485
f 334 335 487 486
f 335 336 488 487
f 336 337 489 488
f 337 338 490 489
f 338 339 491 490
f 339 340 492 491
f 340 341 493 492
f 341 342 494 493
f 342 343 495 494
f 343 344 496 495
f 344 345 497 496
f 345 346 498 497
f 346 347 499 498
f 347 348 500 499
f 348 349 501 500
f 349 350 502 501
f 350 351 503 502
f 351 352 504 503
f 352 353 505 504
f 353 354 506 505
f 354 355 507 506
f 355 356 508 507
f 356 357 509 508
f 357 358 510 509
f 358 359 511 510
f 359 360 512 511
f 360 361 513 512
f 361 362 514 513
f 362 363 515 514
f 363 364 516 515
f 364 365 517 516
f 365 366 518 517
f 366 367 519 518
f 367 368 520 519
f 368 369 521 520
f 369 370 522 521
f 370 371 523 522
f 371 372 524 523
f 372 373 525 524
f 373 374 526 525
f 374 375 527 526
f 375 376 528 527
f 376 377 529 528
f 377 378 530 529
f 378 379 531 530
f 379 380 532 531
f 380 381 533 532
f 381 382 534 533
f 382 383 535 534
f 383 384 536 535
f 384 385 537 536
f 385 386 538 537
f 386 387 539 538
f 387 388 540 539
f 388 389 541 540
f 389 390 542 541
f 390 391 543 542
f 391 392 544 543
f 392 393 545 544
f 393 394 546 545
f 394 306 458 546
f 396 395 547 548
f 395 397 549 547
f 397 398 550 549
f 398 399 551 550
f 399 400 552 551
f 400 401 553 552
f 401 402 554 553
f 402 403 555 554
f 403 404 556 555
f 404 405 557 556
f 405 406 558 557
f 406 407 559 558
f 407 408 560 559
f 408 409 561 560
f 409 410 562 561
f 410 411 563 562
f 411 412 564 563
f 412 413 565 564
f 413 414 566 565
f 414 415 567 566
f 415 416 568 567
f 416 417 569 568
f 417 418 570 569
f 418 419 571 570
f 419 420 572 571
f 420 421 573 572
f 421 422 574 573
f 422 423 575 574
f 423 424 576 575
f 424 425 577 576
f 425 426 578 577
f 426 427 579 578
f 427 428 580 579
f 428 429 581 580
f 429 430 582 581
f 430 431 583 582
f 431 432 584 583
f 432 433 585 584
f 433 434 586 585
f 434 435 587 586
f 435 436 588 587
f 436 437 589 588
f 437 438 590 589
f 438 439 591 590
f 439 440 592 591
f 440 441 593 592
f 441 442 594 593
f 442 443 595 594
f 443 444 596 595
f 444 445 597 596
f 445 446 598 597
f 446 447 599 598
f 447 448 600 599
f 448 449 601 600
f 449 450 602 601
f 450 451 603 602
f 451 452 604 603
f 452 453 605 604
f 453 454 606 605
f 454 455 607 606
f 455 456 608 607
f 456 396 548 608
f 458 457 609 610
f 457 459 611 609
f 459 460 612 611
f 460 461 613 612
f 461 462 614 613
f 462 463 615 614
f 463 464 616 615
f 464 465 617 616
f 465 466 618 617
f 466 467 619 618
f 467 468 620 619
f 468 469 621 620
f 469 470 622 621
f 470 471 623 622
f 471 472 624 623
f 472 473 625 624
f 473 474 626 625
f 474 475 627 626
f 475 476 628 627
f 476 477 629 628
f 477 478 630 629
f 478 479 631 630
f 479 480 632 631
f 480 481 633 632
f 481 482 634 633
f 482 483 635 634
f 483 484 636 635
f 484 485 637 636
f 485 486 638 637
f 486 487 639 638
f 487 488 640 639
f 488 489 641 640
f 489 490 642 641
f 490 491 643 642
f 491 492 644 643
f 492 493 645 644
f 493 494 646 645
f 494 495 647 646
f 495 496 648 647
f 496 497 649 648
f 497 498 650 649
f 498 499 651 650
f 499 500 652 651
f 500 501 653 652
f 501 502 654 653
f 502 503 655 654
f 503 504 656 655
f 504 505 657 656
f 505 506 658 657
f 506 507 659 658
f 507 508 660 659
f 508 509 661 660
f 509 510 662 661
f 510 511 663 662
f 511 512 664 663
f 512 513 665 664
f 513 514 666 665
f 514 515 667 666
f 515 516 668 667
f 516 517 669 668
f 517 518 670 669
f 518 519 671 670
f 519 520 672 671
f 520 521 673 672
f 521 522 674 673
f 522 523 675 674
f 523 524 676 675
f 524 525 677 676
f 525 526 678 677
f 526 527 679 678
f 527 528 680 679
f 528 529 681 680
f 529 530 682 681
f 530 531 683 682
f 531 532 684 683
f 532 533 685 684
f 533 534 686 685
f 534 535 687 686
f 535 536 688 687
f 536 537 689 688
f 537 538 690 689
f 538 539 691 690
f 539 540 692 691
f 540 541 693 692
f 541 542 694 693
f 542 543 695 694
f 543 544 696 695
f 544 545 697 696
f 545 546 698 697
f 546 458 610 698
f 548 547 699 700
f 547 549 701 699
f 549 550 702 701
f 550 551 703 702
f 551 552 704 703
f 552 553 705 704
f 553 554 706 705
f 554 555 707 706
f 555 556 708 707
f 556 557 709 708
f 557 558 710 709
f 558 559 711 710
f 559 560 712 711
f 560 561 713 712
f 561 562 714 713
f 562 563 715 714
f 563 564 716 715
f 564 565 717 716
f 565 566 718 717
f 566 567 719 718
f 567 568 720 719
f 568 569 721 720
f 569 570 722 721
f 570 571 723 722
f 571 572 724 723
f 572 573 725 724
f 573 574 726 725
f 574 575 727 726
f 575 576 728 727
f 576 577 729 728
f 577 578 730 729
f 578 579 731 730
f 579 580 732 731
f 580 581 733 732
f 581 582 734 733
f 582 583 735 734
f 583 584 736 735
f 584 585 737 736
f 585 586 738 737
f 586 587 739 738
f 587 588 740 739
f 588 589 741 740
f 589 590 742 741
f 590 591 743 742
f 591 592 744 743
f 592 593 745 744
f 593 594 746 745
f 594 595 747 746
f 595 596 748 747
f 596 597 749 748
f 597 598 750 749
f 598 599 751 750
f 599 600 752 751
f 600 601 753 752
f 601 602 754 753
f 602 603 755 754
f 603 604 756 755
f 604 605 757 756
f 605 606 758 757
f 606 607 759 758
f 607 608 760 759
f 608 548 700 760
g roof
o roof
usemtl roof
f 761 762 763 764 765 766 767 768 769 770 771 772 773 774 775 776 777 778 779 780 781 782 783 784 785 786 787 788 789 790 791 792 793 794 795 796 797 798 799 800 801 802 803 804 805 806 807 808 809 810 811 812 813 814 815 816 817 818 819 820 821 822 823 824 825 826 827 828 829 830 831 832 833 834 835 836 837 838 839 840
