<svg xmlns="http://www.w3.org/2000/svg" version="1.1" width="841mm" height="594mm" viewBox="0 0 841 594"><defs><pattern id="steel" width="1.1" height="1.1" patternUnits="userSpaceOnUse" patternTransform="rotate(45)"><rect width="1.1" height="1.1" fill="#d7dbe0"/><line x1="0" y1="0" x2="0" y2="1.1" stroke="#6d7581" stroke-width="0.16"/></pattern></defs><rect x="0" y="0" width="841" height="594" fill="#ffffff"/><rect x="10" y="10" width="821" height="574" fill="none" stroke="#111111" stroke-width="0.35"/><line x1="651" y1="10" x2="651" y2="584" stroke="#111111" stroke-width="0.35" stroke-linecap="round"/><text x="659" y="22" font-family="'Helvetica Neue',Helvetica,Arial,sans-serif" font-size="8.5" fill="#111111" font-weight="700" text-anchor="start" letter-spacing="1.2">ARCHI</text><text x="689.5" y="22" font-family="'Helvetica Neue',Helvetica,Arial,sans-serif" font-size="8.5" fill="#1c5fa8" font-weight="700" text-anchor="start" letter-spacing="1.2">AI</text><text x="659" y="28.5" font-family="'Helvetica Neue',Helvetica,Arial,sans-serif" font-size="2.4" fill="#8a8a8a" font-weight="500" text-anchor="start" letter-spacing="1.8">DESIGN STUDIO</text><line x1="651" y1="34" x2="831" y2="34" stroke="#111111" stroke-width="0.25" stroke-linecap="round"/><text x="659" y="42" font-family="'Helvetica Neue',Helvetica,Arial,sans-serif" font-size="2" fill="#8a8a8a" font-weight="600" text-anchor="start" letter-spacing="0.9">PROJECT</text><text x="659" y="46.4" font-family="'Helvetica Neue',Helvetica,Arial,sans-serif" font-size="5.5" fill="#111111" font-weight="600" text-anchor="start">COURTYARD OFFICE</text><text x="659" y="51.6" font-family="'Helvetica Neue',Helvetica,Arial,sans-serif" font-size="5.5" fill="#111111" font-weight="600" text-anchor="start">Complete architectural set</text><line x1="651" y1="55.8" x2="831" y2="55.8" stroke="#c9c9c9" stroke-width="0.25" stroke-linecap="round"/><text x="659" y="59.8" font-family="'Helvetica Neue',Helvetica,Arial,sans-serif" font-size="2" fill="#8a8a8a" font-weight="600" text-anchor="start" letter-spacing="0.9">CLIENT</text><text x="659" y="64.2" font-family="'Helvetica Neue',Helvetica,Arial,sans-serif" font-size="3" fill="#111111" font-weight="500" text-anchor="start">ArchiAI</text><line x1="651" y1="68.4" x2="831" y2="68.4" stroke="#c9c9c9" stroke-width="0.25" stroke-linecap="round"/><text x="659" y="72.4" font-family="'Helvetica Neue',Helvetica,Arial,sans-serif" font-size="2" fill="#8a8a8a" font-weight="600" text-anchor="start" letter-spacing="0.9">DRAWING TITLE</text><text x="659" y="76.8" font-family="'Helvetica Neue',Helvetica,Arial,sans-serif" font-size="4.6" fill="#111111" font-weight="600" text-anchor="start">Level 04 — Framing Plan</text><text x="659" y="83" font-family="'Helvetica Neue',Helvetica,Arial,sans-serif" font-size="2.4" fill="#8a8a8a" font-weight="400" text-anchor="start">Concrete flat slab on a 6901 x 7775 grid</text><line x1="651" y1="84" x2="831" y2="84" stroke="#c9c9c9" stroke-width="0.25" stroke-linecap="round"/><text x="659" y="88" font-family="'Helvetica Neue',Helvetica,Arial,sans-serif" font-size="2" fill="#8a8a8a" font-weight="600" text-anchor="start" letter-spacing="0.9">NOTES</text><text x="659" y="92.4" font-family="'Helvetica Neue',Helvetica,Arial,sans-serif" font-size="2.1" fill="#111111" font-weight="400" text-anchor="start">Sizes are for coordination. Design by</text><text x="659" y="95.4" font-family="'Helvetica Neue',Helvetica,Arial,sans-serif" font-size="2.1" fill="#111111" font-weight="400" text-anchor="start">the engineer.</text><text x="659" y="99.4" font-family="'Helvetica Neue',Helvetica,Arial,sans-serif" font-size="2.1" fill="#111111" font-weight="400" text-anchor="start">Slab 250 mm; beams 400 mm deep.</text><line x1="651" y1="101.4" x2="831" y2="101.4" stroke="#c9c9c9" stroke-width="0.25" stroke-linecap="round"/><line x1="651" y1="538" x2="831" y2="538" stroke="#111111" stroke-width="0.25" stroke-linecap="round"/><text x="656" y="543" font-family="'Helvetica Neue',Helvetica,Arial,sans-serif" font-size="1.9" fill="#8a8a8a" font-weight="600" text-anchor="start" letter-spacing="0.7">SCALE @ A1</text><text x="656" y="548.5" font-family="'Helvetica Neue',Helvetica,Arial,sans-serif" font-size="3" fill="#111111" font-weight="500" text-anchor="start">1 : 150</text><line x1="711" y1="538" x2="711" y2="552" stroke="#c9c9c9" stroke-width="0.25" stroke-linecap="round"/><text x="716" y="543" font-family="'Helvetica Neue',Helvetica,Arial,sans-serif" font-size="1.9" fill="#8a8a8a" font-weight="600" text-anchor="start" letter-spacing="0.7">STATUS</text><text x="716" y="548.5" font-family="'Helvetica Neue',Helvetica,Arial,sans-serif" font-size="3" fill="#111111" font-weight="500" text-anchor="start">STAGE 2</text><line x1="771" y1="538" x2="771" y2="552" stroke="#c9c9c9" stroke-width="0.25" stroke-linecap="round"/><text x="776" y="543" font-family="'Helvetica Neue',Helvetica,Arial,sans-serif" font-size="1.9" fill="#8a8a8a" font-weight="600" text-anchor="start" letter-spacing="0.7">DATE</text><text x="776" y="548.5" font-family="'Helvetica Neue',Helvetica,Arial,sans-serif" font-size="3" fill="#111111" font-weight="500" text-anchor="start">2026-08-19</text><line x1="651" y1="552" x2="831" y2="552" stroke="#c9c9c9" stroke-width="0.25" stroke-linecap="round"/><text x="656" y="559" font-family="'Helvetica Neue',Helvetica,Arial,sans-serif" font-size="1.9" fill="#8a8a8a" font-weight="600" text-anchor="start" letter-spacing="0.7">DRAWING NUMBER</text><text x="656" y="569" font-family="'Helvetica Neue',Helvetica,Arial,sans-serif" font-size="7" fill="#111111" font-weight="700" text-anchor="start">FULL-S-104</text><text x="826" y="569" font-family="'Helvetica Neue',Helvetica,Arial,sans-serif" font-size="4.4" fill="#1c5fa8" font-weight="600" text-anchor="end">REV P01</text><line x1="651" y1="574" x2="831" y2="574" stroke="#c9c9c9" stroke-width="0.25" stroke-linecap="round"/><text x="656" y="580" font-family="'Helvetica Neue',Helvetica,Arial,sans-serif" font-size="1.85" fill="#8a8a8a" font-weight="400" text-anchor="start">Do not scale from this drawing. Figured dimensions govern.</text><path d="M 514.531 211.464 L 514.154 205.713 L 513.03 200.06 L 511.177 194.602 L 508.628 189.432 L 505.426 184.64 L 501.625 180.306 L 497.292 176.506 L 492.5 173.304 L 487.33 170.755 L 481.872 168.902 L 476.219 167.777 L 470.468 167.4 L 190.532 167.4 L 184.781 167.777 L 179.128 168.902 L 173.67 170.755 L 168.5 173.304 L 163.708 176.506 L 159.375 180.306 L 155.574 184.64 L 152.372 189.432 L 149.823 194.602 L 147.97 200.06 L 146.846 205.713 L 146.469 211.464 L 146.469 382.536 L 146.846 388.287 L 147.97 393.94 L 149.823 399.398 L 152.372 404.568 L 155.574 409.36 L 159.375 413.694 L 163.708 417.494 L 168.5 420.696 L 173.67 423.245 L 179.128 425.098 L 184.781 426.223 L 190.532 426.6 L 470.468 426.6 L 476.219 426.223 L 481.872 425.098 L 487.33 423.245 L 492.5 420.696 L 497.292 417.494 L 501.625 413.694 L 505.426 409.36 L 508.628 404.568 L 511.177 399.398 L 513.03 393.94 L 514.154 388.287 L 514.531 382.536 Z M 408.26 315.144 L 408.016 318.865 L 407.288 322.523 L 406.089 326.055 L 404.44 329.4 L 402.368 332.501 L 399.909 335.305 L 397.105 337.764 L 394.004 339.836 L 390.659 341.486 L 387.127 342.684 L 383.469 343.412 L 379.748 343.656 L 281.252 343.656 L 277.531 343.412 L 273.873 342.684 L 270.341 341.486 L 266.996 339.836 L 263.895 337.764 L 261.091 335.305 L 258.632 332.501 L 256.56 329.4 L 254.911 326.055 L 253.712 322.523 L 252.984 318.865 L 252.74 315.144 L 252.74 278.856 L 252.984 275.135 L 253.712 271.477 L 254.911 267.945 L 256.56 264.6 L 258.632 261.499 L 261.091 258.695 L 263.895 256.236 L 266.996 254.164 L 270.341 252.514 L 273.873 251.316 L 277.531 250.588 L 281.252 250.344 L 379.748 250.344 L 383.469 250.588 L 387.127 251.316 L 390.659 252.514 L 394.004 254.164 L 397.105 256.236 L 399.909 258.695 L 402.368 261.499 L 404.44 264.6 L 406.089 267.945 L 407.288 271.477 L 408.016 275.135 L 408.26 278.856 Z" fill="#fbfbfa" fill-rule="evenodd"/><path d="M 514.531 211.464 L 514.154 205.713 L 513.03 200.06 L 511.177 194.602 L 508.628 189.432 L 505.426 184.64 L 501.625 180.306 L 497.292 176.506 L 492.5 173.304 L 487.33 170.755 L 481.872 168.902 L 476.219 167.777 L 470.468 167.4 L 190.532 167.4 L 184.781 167.777 L 179.128 168.902 L 173.67 170.755 L 168.5 173.304 L 163.708 176.506 L 159.375 180.306 L 155.574 184.64 L 152.372 189.432 L 149.823 194.602 L 147.97 200.06 L 146.846 205.713 L 146.469 211.464 L 146.469 382.536 L 146.846 388.287 L 147.97 393.94 L 149.823 399.398 L 152.372 404.568 L 155.574 409.36 L 159.375 413.694 L 163.708 417.494 L 168.5 420.696 L 173.67 423.245 L 179.128 425.098 L 184.781 426.223 L 190.532 426.6 L 470.468 426.6 L 476.219 426.223 L 481.872 425.098 L 487.33 423.245 L 492.5 420.696 L 497.292 417.494 L 501.625 413.694 L 505.426 409.36 L 508.628 404.568 L 511.177 399.398 L 513.03 393.94 L 514.154 388.287 L 514.531 382.536 Z M 408.26 315.144 L 408.016 318.865 L 407.288 322.523 L 406.089 326.055 L 404.44 329.4 L 402.368 332.501 L 399.909 335.305 L 397.105 337.764 L 394.004 339.836 L 390.659 341.486 L 387.127 342.684 L 383.469 343.412 L 379.748 343.656 L 281.252 343.656 L 277.531 343.412 L 273.873 342.684 L 270.341 341.486 L 266.996 339.836 L 263.895 337.764 L 261.091 335.305 L 258.632 332.501 L 256.56 329.4 L 254.911 326.055 L 253.712 322.523 L 252.984 318.865 L 252.74 315.144 L 252.74 278.856 L 252.984 275.135 L 253.712 271.477 L 254.911 267.945 L 256.56 264.6 L 258.632 261.499 L 261.091 258.695 L 263.895 256.236 L 266.996 254.164 L 270.341 252.514 L 273.873 251.316 L 277.531 250.588 L 281.252 250.344 L 379.748 250.344 L 383.469 250.588 L 387.127 251.316 L 390.659 252.514 L 394.004 254.164 L 397.105 256.236 L 399.909 258.695 L 402.368 261.499 L 404.44 264.6 L 406.089 267.945 L 407.288 271.477 L 408.016 275.135 L 408.26 278.856 Z" fill="none" fill-rule="evenodd" stroke="#111111" stroke-width="0.5" stroke-linecap="round" stroke-linejoin="round"/><line x1="146.467" y1="374.76" x2="192.473" y2="374.76" stroke="#111111" stroke-width="0.35" stroke-linecap="round"/><line x1="192.473" y1="374.76" x2="238.487" y2="374.76" stroke="#111111" stroke-width="0.35" stroke-linecap="round"/><line x1="238.487" y1="374.76" x2="284.493" y2="374.76" stroke="#111111" stroke-width="0.35" stroke-linecap="round"/><line x1="284.493" y1="374.76" x2="330.5" y2="374.76" stroke="#111111" stroke-width="0.35" stroke-linecap="round"/><line x1="330.5" y1="374.76" x2="376.507" y2="374.76" stroke="#111111" stroke-width="0.35" stroke-linecap="round"/><line x1="376.507" y1="374.76" x2="422.513" y2="374.76" stroke="#111111" stroke-width="0.35" stroke-linecap="round"/><line x1="422.513" y1="374.76" x2="468.527" y2="374.76" stroke="#111111" stroke-width="0.35" stroke-linecap="round"/><line x1="146.467" y1="322.92" x2="192.473" y2="322.92" stroke="#111111" stroke-width="0.35" stroke-linecap="round"/><line x1="192.473" y1="322.92" x2="238.487" y2="322.92" stroke="#111111" stroke-width="0.35" stroke-linecap="round"/><line x1="422.513" y1="322.92" x2="468.527" y2="322.92" stroke="#111111" stroke-width="0.35" stroke-linecap="round"/><line x1="146.467" y1="271.08" x2="192.473" y2="271.08" stroke="#111111" stroke-width="0.35" stroke-linecap="round"/><line x1="192.473" y1="271.08" x2="238.487" y2="271.08" stroke="#111111" stroke-width="0.35" stroke-linecap="round"/><line x1="422.513" y1="271.08" x2="468.527" y2="271.08" stroke="#111111" stroke-width="0.35" stroke-linecap="round"/><line x1="146.467" y1="219.24" x2="192.473" y2="219.24" stroke="#111111" stroke-width="0.35" stroke-linecap="round"/><line x1="192.473" y1="219.24" x2="238.487" y2="219.24" stroke="#111111" stroke-width="0.35" stroke-linecap="round"/><line x1="238.487" y1="219.24" x2="284.493" y2="219.24" stroke="#111111" stroke-width="0.35" stroke-linecap="round"/><line x1="284.493" y1="219.24" x2="330.5" y2="219.24" stroke="#111111" stroke-width="0.35" stroke-linecap="round"/><line x1="330.5" y1="219.24" x2="376.507" y2="219.24" stroke="#111111" stroke-width="0.35" stroke-linecap="round"/><line x1="376.507" y1="219.24" x2="422.513" y2="219.24" stroke="#111111" stroke-width="0.35" stroke-linecap="round"/><line x1="422.513" y1="219.24" x2="468.527" y2="219.24" stroke="#111111" stroke-width="0.35" stroke-linecap="round"/><line x1="169.47" y1="374.76" x2="169.47" y2="322.92" stroke="#5c6a76" stroke-width="0.25" stroke-linecap="round"/><line x1="169.47" y1="322.92" x2="169.47" y2="271.08" stroke="#5c6a76" stroke-width="0.25" stroke-linecap="round"/><line x1="169.47" y1="271.08" x2="169.47" y2="219.24" stroke="#5c6a76" stroke-width="0.25" stroke-linecap="round"/><line x1="192.473" y1="426.6" x2="192.473" y2="374.76" stroke="#111111" stroke-width="0.35" stroke-linecap="round"/><line x1="215.477" y1="426.6" x2="215.477" y2="374.76" stroke="#5c6a76" stroke-width="0.25" stroke-linecap="round"/><line x1="192.473" y1="374.76" x2="192.473" y2="322.92" stroke="#111111" stroke-width="0.35" stroke-linecap="round"/><line x1="215.477" y1="374.76" x2="215.477" y2="322.92" stroke="#5c6a76" stroke-width="0.25" stroke-linecap="round"/><line x1="192.473" y1="322.92" x2="192.473" y2="271.08" stroke="#111111" stroke-width="0.35" stroke-linecap="round"/><line x1="215.477" y1="322.92" x2="215.477" y2="271.08" stroke="#5c6a76" stroke-width="0.25" stroke-linecap="round"/><line x1="192.473" y1="271.08" x2="192.473" y2="219.24" stroke="#111111" stroke-width="0.35" stroke-linecap="round"/><line x1="215.477" y1="271.08" x2="215.477" y2="219.24" stroke="#5c6a76" stroke-width="0.25" stroke-linecap="round"/><line x1="238.487" y1="426.6" x2="238.487" y2="374.76" stroke="#111111" stroke-width="0.35" stroke-linecap="round"/><line x1="261.49" y1="426.6" x2="261.49" y2="374.76" stroke="#5c6a76" stroke-width="0.25" stroke-linecap="round"/><line x1="238.487" y1="374.76" x2="238.487" y2="322.92" stroke="#111111" stroke-width="0.35" stroke-linecap="round"/><line x1="261.49" y1="374.76" x2="261.49" y2="322.92" stroke="#5c6a76" stroke-width="0.25" stroke-linecap="round"/><line x1="238.487" y1="322.92" x2="238.487" y2="271.08" stroke="#111111" stroke-width="0.35" stroke-linecap="round"/><line x1="238.487" y1="271.08" x2="238.487" y2="219.24" stroke="#111111" stroke-width="0.35" stroke-linecap="round"/><line x1="261.49" y1="271.08" x2="261.49" y2="219.24" stroke="#5c6a76" stroke-width="0.25" stroke-linecap="round"/><line x1="284.493" y1="426.6" x2="284.493" y2="374.76" stroke="#111111" stroke-width="0.35" stroke-linecap="round"/><line x1="307.497" y1="426.6" x2="307.497" y2="374.76" stroke="#5c6a76" stroke-width="0.25" stroke-linecap="round"/><line x1="330.5" y1="426.6" x2="330.5" y2="374.76" stroke="#111111" stroke-width="0.35" stroke-linecap="round"/><line x1="353.503" y1="426.6" x2="353.503" y2="374.76" stroke="#5c6a76" stroke-width="0.25" stroke-linecap="round"/><line x1="376.507" y1="426.6" x2="376.507" y2="374.76" stroke="#111111" stroke-width="0.35" stroke-linecap="round"/><line x1="399.51" y1="426.6" x2="399.51" y2="374.76" stroke="#5c6a76" stroke-width="0.25" stroke-linecap="round"/><line x1="422.513" y1="426.6" x2="422.513" y2="374.76" stroke="#111111" stroke-width="0.35" stroke-linecap="round"/><line x1="445.517" y1="426.6" x2="445.517" y2="374.76" stroke="#5c6a76" stroke-width="0.25" stroke-linecap="round"/><line x1="422.513" y1="374.76" x2="422.513" y2="322.92" stroke="#111111" stroke-width="0.35" stroke-linecap="round"/><line x1="445.517" y1="374.76" x2="445.517" y2="322.92" stroke="#5c6a76" stroke-width="0.25" stroke-linecap="round"/><line x1="422.513" y1="322.92" x2="422.513" y2="271.08" stroke="#111111" stroke-width="0.35" stroke-linecap="round"/><line x1="445.517" y1="322.92" x2="445.517" y2="271.08" stroke="#5c6a76" stroke-width="0.25" stroke-linecap="round"/><line x1="422.513" y1="271.08" x2="422.513" y2="219.24" stroke="#111111" stroke-width="0.35" stroke-linecap="round"/><line x1="445.517" y1="271.08" x2="445.517" y2="219.24" stroke="#5c6a76" stroke-width="0.25" stroke-linecap="round"/><line x1="468.527" y1="426.6" x2="468.527" y2="374.76" stroke="#111111" stroke-width="0.35" stroke-linecap="round"/><line x1="491.53" y1="426.6" x2="491.53" y2="374.76" stroke="#5c6a76" stroke-width="0.25" stroke-linecap="round"/><line x1="468.527" y1="374.76" x2="468.527" y2="322.92" stroke="#111111" stroke-width="0.35" stroke-linecap="round"/><line x1="491.53" y1="374.76" x2="491.53" y2="322.92" stroke="#5c6a76" stroke-width="0.25" stroke-linecap="round"/><line x1="468.527" y1="322.92" x2="468.527" y2="271.08" stroke="#111111" stroke-width="0.35" stroke-linecap="round"/><line x1="491.53" y1="322.92" x2="491.53" y2="271.08" stroke="#5c6a76" stroke-width="0.25" stroke-linecap="round"/><line x1="468.527" y1="271.08" x2="468.527" y2="219.24" stroke="#111111" stroke-width="0.35" stroke-linecap="round"/><line x1="491.53" y1="271.08" x2="491.53" y2="219.24" stroke="#5c6a76" stroke-width="0.25" stroke-linecap="round"/><path d="M 145.635 375.593 L 147.302 375.593 L 147.302 373.926 L 145.635 373.926 Z" fill="#111111" stroke="#111111" stroke-width="0.35" stroke-linecap="round" stroke-linejoin="round"/><path d="M 145.635 323.753 L 147.302 323.753 L 147.302 322.087 L 145.635 322.087 Z" fill="#111111" stroke="#111111" stroke-width="0.35" stroke-linecap="round" stroke-linejoin="round"/><path d="M 145.635 271.913 L 147.302 271.913 L 147.302 270.247 L 145.635 270.247 Z" fill="#111111" stroke="#111111" stroke-width="0.35" stroke-linecap="round" stroke-linejoin="round"/><path d="M 145.635 220.074 L 147.302 220.074 L 147.302 218.407 L 145.635 218.407 Z" fill="#111111" stroke="#111111" stroke-width="0.35" stroke-linecap="round" stroke-linejoin="round"/><path d="M 191.643 427.433 L 193.31 427.433 L 193.31 425.766 L 191.643 425.766 Z" fill="#111111" stroke="#111111" stroke-width="0.35" stroke-linecap="round" stroke-linejoin="round"/><path d="M 191.643 375.593 L 193.31 375.593 L 193.31 373.926 L 191.643 373.926 Z" fill="#111111" stroke="#111111" stroke-width="0.35" stroke-linecap="round" stroke-linejoin="round"/><path d="M 191.643 323.753 L 193.31 323.753 L 193.31 322.087 L 191.643 322.087 Z" fill="#111111" stroke="#111111" stroke-width="0.35" stroke-linecap="round" stroke-linejoin="round"/><path d="M 191.643 271.913 L 193.31 271.913 L 193.31 270.247 L 191.643 270.247 Z" fill="#111111" stroke="#111111" stroke-width="0.35" stroke-linecap="round" stroke-linejoin="round"/><path d="M 191.643 220.074 L 193.31 220.074 L 193.31 218.407 L 191.643 218.407 Z" fill="#111111" stroke="#111111" stroke-width="0.35" stroke-linecap="round" stroke-linejoin="round"/><path d="M 237.651 427.433 L 239.318 427.433 L 239.318 425.766 L 237.651 425.766 Z" fill="#111111" stroke="#111111" stroke-width="0.35" stroke-linecap="round" stroke-linejoin="round"/><path d="M 237.651 375.593 L 239.318 375.593 L 239.318 373.926 L 237.651 373.926 Z" fill="#111111" stroke="#111111" stroke-width="0.35" stroke-linecap="round" stroke-linejoin="round"/><path d="M 237.651 323.753 L 239.318 323.753 L 239.318 322.087 L 237.651 322.087 Z" fill="#111111" stroke="#111111" stroke-width="0.35" stroke-linecap="round" stroke-linejoin="round"/><path d="M 237.651 271.913 L 239.318 271.913 L 239.318 270.247 L 237.651 270.247 Z" fill="#111111" stroke="#111111" stroke-width="0.35" stroke-linecap="round" stroke-linejoin="round"/><path d="M 237.651 220.074 L 239.318 220.074 L 239.318 218.407 L 237.651 218.407 Z" fill="#111111" stroke="#111111" stroke-width="0.35" stroke-linecap="round" stroke-linejoin="round"/><path d="M 283.659 427.433 L 285.325 427.433 L 285.325 425.766 L 283.659 425.766 Z" fill="#111111" stroke="#111111" stroke-width="0.35" stroke-linecap="round" stroke-linejoin="round"/><path d="M 283.659 375.593 L 285.325 375.593 L 285.325 373.926 L 283.659 373.926 Z" fill="#111111" stroke="#111111" stroke-width="0.35" stroke-linecap="round" stroke-linejoin="round"/><path d="M 283.659 220.074 L 285.325 220.074 L 285.325 218.407 L 283.659 218.407 Z" fill="#111111" stroke="#111111" stroke-width="0.35" stroke-linecap="round" stroke-linejoin="round"/><path d="M 329.667 427.433 L 331.333 427.433 L 331.333 425.766 L 329.667 425.766 Z" fill="#111111" stroke="#111111" stroke-width="0.35" stroke-linecap="round" stroke-linejoin="round"/><path d="M 329.667 375.593 L 331.333 375.593 L 331.333 373.926 L 329.667 373.926 Z" fill="#111111" stroke="#111111" stroke-width="0.35" stroke-linecap="round" stroke-linejoin="round"/><path d="M 329.667 220.074 L 331.333 220.074 L 331.333 218.407 L 329.667 218.407 Z" fill="#111111" stroke="#111111" stroke-width="0.35" stroke-linecap="round" stroke-linejoin="round"/><path d="M 375.675 427.433 L 377.341 427.433 L 377.341 425.766 L 375.675 425.766 Z" fill="#111111" stroke="#111111" stroke-width="0.35" stroke-linecap="round" stroke-linejoin="round"/><path d="M 375.675 375.593 L 377.341 375.593 L 377.341 373.926 L 375.675 373.926 Z" fill="#111111" stroke="#111111" stroke-width="0.35" stroke-linecap="round" stroke-linejoin="round"/><path d="M 375.675 220.074 L 377.341 220.074 L 377.341 218.407 L 375.675 218.407 Z" fill="#111111" stroke="#111111" stroke-width="0.35" stroke-linecap="round" stroke-linejoin="round"/><path d="M 421.682 427.433 L 423.349 427.433 L 423.349 425.766 L 421.682 425.766 Z" fill="#111111" stroke="#111111" stroke-width="0.35" stroke-linecap="round" stroke-linejoin="round"/><path d="M 421.682 375.593 L 423.349 375.593 L 423.349 373.926 L 421.682 373.926 Z" fill="#111111" stroke="#111111" stroke-width="0.35" stroke-linecap="round" stroke-linejoin="round"/><path d="M 421.682 323.753 L 423.349 323.753 L 423.349 322.087 L 421.682 322.087 Z" fill="#111111" stroke="#111111" stroke-width="0.35" stroke-linecap="round" stroke-linejoin="round"/><path d="M 421.682 271.913 L 423.349 271.913 L 423.349 270.247 L 421.682 270.247 Z" fill="#111111" stroke="#111111" stroke-width="0.35" stroke-linecap="round" stroke-linejoin="round"/><path d="M 421.682 220.074 L 423.349 220.074 L 423.349 218.407 L 421.682 218.407 Z" fill="#111111" stroke="#111111" stroke-width="0.35" stroke-linecap="round" stroke-linejoin="round"/><path d="M 467.69 427.433 L 469.357 427.433 L 469.357 425.766 L 467.69 425.766 Z" fill="#111111" stroke="#111111" stroke-width="0.35" stroke-linecap="round" stroke-linejoin="round"/><path d="M 467.69 375.593 L 469.357 375.593 L 469.357 373.926 L 467.69 373.926 Z" fill="#111111" stroke="#111111" stroke-width="0.35" stroke-linecap="round" stroke-linejoin="round"/><path d="M 467.69 323.753 L 469.357 323.753 L 469.357 322.087 L 467.69 322.087 Z" fill="#111111" stroke="#111111" stroke-width="0.35" stroke-linecap="round" stroke-linejoin="round"/><path d="M 467.69 271.913 L 469.357 271.913 L 469.357 270.247 L 467.69 270.247 Z" fill="#111111" stroke="#111111" stroke-width="0.35" stroke-linecap="round" stroke-linejoin="round"/><path d="M 467.69 220.074 L 469.357 220.074 L 469.357 218.407 L 467.69 218.407 Z" fill="#111111" stroke="#111111" stroke-width="0.35" stroke-linecap="round" stroke-linejoin="round"/><path d="M 293.541 169.734 L 292.791 169.734 L 287.991 169.734 L 283.191 169.734 L 278.391 169.734 L 273.591 169.734 L 268.791 169.734 L 263.991 169.734 L 259.191 169.734 L 254.391 169.734 L 249.591 169.734 L 245.041 169.734 L 245.041 219.734 L 247.954 219.734 L 252.754 219.734 L 257.554 219.734 L 262.354 219.734 L 267.154 219.734 L 271.954 219.734 L 276.754 219.734 L 281.554 219.734 L 286.354 219.734 L 291.154 219.734 L 293.541 219.734 Z" fill="url(#steel)" stroke="#111111" stroke-width="0.5" stroke-linecap="round" stroke-linejoin="round"/><text x="269.291" y="195.534" font-family="'Helvetica Neue',Helvetica,Arial,sans-serif" font-size="2" fill="#111111" font-weight="700" text-anchor="middle" stroke="#ffffff" stroke-width="0.68" paint-order="stroke" stroke-linejoin="round">SHEAR CORE</text><path d="M 148.802 285.46 L 148.802 288.341 L 148.802 293.141 L 148.802 297.941 L 148.802 302.741 L 148.802 307.541 L 148.802 312.341 L 148.802 317.141 L 148.802 321.941 L 148.802 326.741 L 148.802 331.541 L 148.802 333.959 L 198.802 333.959 L 198.802 333.177 L 198.802 328.377 L 198.802 323.577 L 198.802 318.777 L 198.802 313.977 L 198.802 309.177 L 198.802 304.377 L 198.802 299.577 L 198.802 294.777 L 198.802 289.977 L 198.802 285.46 Z" fill="url(#steel)" stroke="#111111" stroke-width="0.5" stroke-linecap="round" stroke-linejoin="round"/><text x="173.802" y="310.51" font-family="'Helvetica Neue',Helvetica,Arial,sans-serif" font-size="2" fill="#111111" font-weight="700" text-anchor="middle" stroke="#ffffff" stroke-width="0.68" paint-order="stroke" stroke-linejoin="round">SHEAR CORE</text><path d="M 221.96 424.266 L 224.209 424.266 L 229.009 424.266 L 233.809 424.266 L 238.609 424.266 L 243.409 424.266 L 248.209 424.266 L 253.009 424.266 L 257.809 424.266 L 262.609 424.266 L 267.409 424.266 L 270.46 424.266 L 270.46 374.266 L 269.046 374.266 L 264.246 374.266 L 259.446 374.266 L 254.646 374.266 L 249.846 374.266 L 245.046 374.266 L 240.246 374.266 L 235.446 374.266 L 230.646 374.266 L 225.846 374.266 L 221.96 374.266 Z" fill="url(#steel)" stroke="#111111" stroke-width="0.5" stroke-linecap="round" stroke-linejoin="round"/><text x="246.21" y="400.066" font-family="'Helvetica Neue',Helvetica,Arial,sans-serif" font-size="2" fill="#111111" font-weight="700" text-anchor="middle" stroke="#ffffff" stroke-width="0.68" paint-order="stroke" stroke-linejoin="round">SHEAR CORE</text><path d="M 415.959 424.266 L 416.209 424.266 L 421.009 424.266 L 425.809 424.266 L 430.609 424.266 L 435.409 424.266 L 440.209 424.266 L 445.009 424.266 L 449.809 424.266 L 454.609 424.266 L 459.409 424.266 L 464.209 424.266 L 464.459 424.266 L 464.459 376.702 L 464.541 376.609 L 465.365 375.886 L 466.277 375.277 L 467.26 374.792 L 468.298 374.44 L 469.374 374.226 L 468.754 374.266 L 465.846 374.266 L 461.046 374.266 L 456.246 374.266 L 451.446 374.266 L 446.646 374.266 L 441.846 374.266 L 437.046 374.266 L 432.246 374.266 L 427.446 374.266 L 422.646 374.266 L 417.846 374.266 L 415.959 374.266 Z" fill="url(#steel)" stroke="#111111" stroke-width="0.5" stroke-linecap="round" stroke-linejoin="round"/><text x="440.254" y="400.024" font-family="'Helvetica Neue',Helvetica,Arial,sans-serif" font-size="2" fill="#111111" font-weight="700" text-anchor="middle" stroke="#ffffff" stroke-width="0.68" paint-order="stroke" stroke-linejoin="round">SHEAR CORE</text><path d="M 512.198 260.041 L 512.198 257.659 L 512.198 252.859 L 512.198 248.059 L 512.198 243.259 L 512.198 238.459 L 512.198 233.659 L 512.198 228.859 L 512.198 224.059 L 512.198 219.259 L 512.198 214.459 L 512.198 211.541 L 462.777 214.78 L 462.724 214.672 L 462.371 213.634 L 462.158 212.558 L 462.198 213.177 L 462.198 217.623 L 462.198 222.423 L 462.198 227.223 L 462.198 232.023 L 462.198 236.823 L 462.198 241.623 L 462.198 246.423 L 462.198 251.223 L 462.198 256.023 L 462.198 260.041 Z" fill="url(#steel)" stroke="#111111" stroke-width="0.5" stroke-linecap="round" stroke-linejoin="round"/><text x="487.484" y="237.395" font-family="'Helvetica Neue',Helvetica,Arial,sans-serif" font-size="2" fill="#111111" font-weight="700" text-anchor="middle" stroke="#ffffff" stroke-width="0.68" paint-order="stroke" stroke-linejoin="round">SHEAR CORE</text><line x1="146.469" y1="479.933" x2="146.469" y2="114.067" stroke="#1c5fa8" stroke-width="0.13" stroke-linecap="round" stroke-dasharray="6,2,1,2"/><circle cx="146.469" cy="483.933" r="4" fill="#ffffff" stroke="#1c5fa8" stroke-width="0.13"/><text x="146.469" y="484.783" font-family="'Helvetica Neue',Helvetica,Arial,sans-serif" font-size="2.4" fill="#1c5fa8" font-weight="600" text-anchor="middle">1</text><circle cx="146.469" cy="110.067" r="4" fill="#ffffff" stroke="#1c5fa8" stroke-width="0.13"/><text x="146.469" y="110.917" font-family="'Helvetica Neue',Helvetica,Arial,sans-serif" font-size="2.4" fill="#1c5fa8" font-weight="600" text-anchor="middle">1</text><line x1="192.476" y1="479.933" x2="192.476" y2="114.067" stroke="#1c5fa8" stroke-width="0.13" stroke-linecap="round" stroke-dasharray="6,2,1,2"/><circle cx="192.476" cy="483.933" r="4" fill="#ffffff" stroke="#1c5fa8" stroke-width="0.13"/><text x="192.476" y="484.783" font-family="'Helvetica Neue',Helvetica,Arial,sans-serif" font-size="2.4" fill="#1c5fa8" font-weight="600" text-anchor="middle">2</text><circle cx="192.476" cy="110.067" r="4" fill="#ffffff" stroke="#1c5fa8" stroke-width="0.13"/><text x="192.476" y="110.917" font-family="'Helvetica Neue',Helvetica,Arial,sans-serif" font-size="2.4" fill="#1c5fa8" font-weight="600" text-anchor="middle">2</text><line x1="238.484" y1="479.933" x2="238.484" y2="114.067" stroke="#1c5fa8" stroke-width="0.13" stroke-linecap="round" stroke-dasharray="6,2,1,2"/><circle cx="238.484" cy="483.933" r="4" fill="#ffffff" stroke="#1c5fa8" stroke-width="0.13"/><text x="238.484" y="484.783" font-family="'Helvetica Neue',Helvetica,Arial,sans-serif" font-size="2.4" fill="#1c5fa8" font-weight="600" text-anchor="middle">3</text><circle cx="238.484" cy="110.067" r="4" fill="#ffffff" stroke="#1c5fa8" stroke-width="0.13"/><text x="238.484" y="110.917" font-family="'Helvetica Neue',Helvetica,Arial,sans-serif" font-size="2.4" fill="#1c5fa8" font-weight="600" text-anchor="middle">3</text><line x1="284.492" y1="479.933" x2="284.492" y2="114.067" stroke="#1c5fa8" stroke-width="0.13" stroke-linecap="round" stroke-dasharray="6,2,1,2"/><circle cx="284.492" cy="483.933" r="4" fill="#ffffff" stroke="#1c5fa8" stroke-width="0.13"/><text x="284.492" y="484.783" font-family="'Helvetica Neue',Helvetica,Arial,sans-serif" font-size="2.4" fill="#1c5fa8" font-weight="600" text-anchor="middle">4</text><circle cx="284.492" cy="110.067" r="4" fill="#ffffff" stroke="#1c5fa8" stroke-width="0.13"/><text x="284.492" y="110.917" font-family="'Helvetica Neue',Helvetica,Arial,sans-serif" font-size="2.4" fill="#1c5fa8" font-weight="600" text-anchor="middle">4</text><line x1="330.5" y1="479.933" x2="330.5" y2="114.067" stroke="#1c5fa8" stroke-width="0.13" stroke-linecap="round" stroke-dasharray="6,2,1,2"/><circle cx="330.5" cy="483.933" r="4" fill="#ffffff" stroke="#1c5fa8" stroke-width="0.13"/><text x="330.5" y="484.783" font-family="'Helvetica Neue',Helvetica,Arial,sans-serif" font-size="2.4" fill="#1c5fa8" font-weight="600" text-anchor="middle">5</text><circle cx="330.5" cy="110.067" r="4" fill="#ffffff" stroke="#1c5fa8" stroke-width="0.13"/><text x="330.5" y="110.917" font-family="'Helvetica Neue',Helvetica,Arial,sans-serif" font-size="2.4" fill="#1c5fa8" font-weight="600" text-anchor="middle">5</text><line x1="376.508" y1="479.933" x2="376.508" y2="114.067" stroke="#1c5fa8" stroke-width="0.13" stroke-linecap="round" stroke-dasharray="6,2,1,2"/><circle cx="376.508" cy="483.933" r="4" fill="#ffffff" stroke="#1c5fa8" stroke-width="0.13"/><text x="376.508" y="484.783" font-family="'Helvetica Neue',Helvetica,Arial,sans-serif" font-size="2.4" fill="#1c5fa8" font-weight="600" text-anchor="middle">6</text><circle cx="376.508" cy="110.067" r="4" fill="#ffffff" stroke="#1c5fa8" stroke-width="0.13"/><text x="376.508" y="110.917" font-family="'Helvetica Neue',Helvetica,Arial,sans-serif" font-size="2.4" fill="#1c5fa8" font-weight="600" text-anchor="middle">6</text><line x1="422.516" y1="479.933" x2="422.516" y2="114.067" stroke="#1c5fa8" stroke-width="0.13" stroke-linecap="round" stroke-dasharray="6,2,1,2"/><circle cx="422.516" cy="483.933" r="4" fill="#ffffff" stroke="#1c5fa8" stroke-width="0.13"/><text x="422.516" y="484.783" font-family="'Helvetica Neue',Helvetica,Arial,sans-serif" font-size="2.4" fill="#1c5fa8" font-weight="600" text-anchor="middle">7</text><circle cx="422.516" cy="110.067" r="4" fill="#ffffff" stroke="#1c5fa8" stroke-width="0.13"/><text x="422.516" y="110.917" font-family="'Helvetica Neue',Helvetica,Arial,sans-serif" font-size="2.4" fill="#1c5fa8" font-weight="600" text-anchor="middle">7</text><line x1="468.524" y1="479.933" x2="468.524" y2="114.067" stroke="#1c5fa8" stroke-width="0.13" stroke-linecap="round" stroke-dasharray="6,2,1,2"/><circle cx="468.524" cy="483.933" r="4" fill="#ffffff" stroke="#1c5fa8" stroke-width="0.13"/><text x="468.524" y="484.783" font-family="'Helvetica Neue',Helvetica,Arial,sans-serif" font-size="2.4" fill="#1c5fa8" font-weight="600" text-anchor="middle">8</text><circle cx="468.524" cy="110.067" r="4" fill="#ffffff" stroke="#1c5fa8" stroke-width="0.13"/><text x="468.524" y="110.917" font-family="'Helvetica Neue',Helvetica,Arial,sans-serif" font-size="2.4" fill="#1c5fa8" font-weight="600" text-anchor="middle">8</text><line x1="514.531" y1="479.933" x2="514.531" y2="114.067" stroke="#1c5fa8" stroke-width="0.13" stroke-linecap="round" stroke-dasharray="6,2,1,2"/><circle cx="514.531" cy="483.933" r="4" fill="#ffffff" stroke="#1c5fa8" stroke-width="0.13"/><text x="514.531" y="484.783" font-family="'Helvetica Neue',Helvetica,Arial,sans-serif" font-size="2.4" fill="#1c5fa8" font-weight="600" text-anchor="middle">9</text><circle cx="514.531" cy="110.067" r="4" fill="#ffffff" stroke="#1c5fa8" stroke-width="0.13"/><text x="514.531" y="110.917" font-family="'Helvetica Neue',Helvetica,Arial,sans-serif" font-size="2.4" fill="#1c5fa8" font-weight="600" text-anchor="middle">9</text><line x1="93.135" y1="426.6" x2="567.865" y2="426.6" stroke="#1c5fa8" stroke-width="0.13" stroke-linecap="round" stroke-dasharray="6,2,1,2"/><circle cx="89.135" cy="426.6" r="4" fill="#ffffff" stroke="#1c5fa8" stroke-width="0.13"/><text x="89.135" y="427.45" font-family="'Helvetica Neue',Helvetica,Arial,sans-serif" font-size="2.4" fill="#1c5fa8" font-weight="600" text-anchor="middle">A</text><circle cx="571.865" cy="426.6" r="4" fill="#ffffff" stroke="#1c5fa8" stroke-width="0.13"/><text x="571.865" y="427.45" font-family="'Helvetica Neue',Helvetica,Arial,sans-serif" font-size="2.4" fill="#1c5fa8" font-weight="600" text-anchor="middle">A</text><line x1="93.135" y1="374.76" x2="567.865" y2="374.76" stroke="#1c5fa8" stroke-width="0.13" stroke-linecap="round" stroke-dasharray="6,2,1,2"/><circle cx="89.135" cy="374.76" r="4" fill="#ffffff" stroke="#1c5fa8" stroke-width="0.13"/><text x="89.135" y="375.61" font-family="'Helvetica Neue',Helvetica,Arial,sans-serif" font-size="2.4" fill="#1c5fa8" font-weight="600" text-anchor="middle">B</text><circle cx="571.865" cy="374.76" r="4" fill="#ffffff" stroke="#1c5fa8" stroke-width="0.13"/><text x="571.865" y="375.61" font-family="'Helvetica Neue',Helvetica,Arial,sans-serif" font-size="2.4" fill="#1c5fa8" font-weight="600" text-anchor="middle">B</text><line x1="93.135" y1="322.92" x2="567.865" y2="322.92" stroke="#1c5fa8" stroke-width="0.13" stroke-linecap="round" stroke-dasharray="6,2,1,2"/><circle cx="89.135" cy="322.92" r="4" fill="#ffffff" stroke="#1c5fa8" stroke-width="0.13"/><text x="89.135" y="323.77" font-family="'Helvetica Neue',Helvetica,Arial,sans-serif" font-size="2.4" fill="#1c5fa8" font-weight="600" text-anchor="middle">C</text><circle cx="571.865" cy="322.92" r="4" fill="#ffffff" stroke="#1c5fa8" stroke-width="0.13"/><text x="571.865" y="323.77" font-family="'Helvetica Neue',Helvetica,Arial,sans-serif" font-size="2.4" fill="#1c5fa8" font-weight="600" text-anchor="middle">C</text><line x1="93.135" y1="271.08" x2="567.865" y2="271.08" stroke="#1c5fa8" stroke-width="0.13" stroke-linecap="round" stroke-dasharray="6,2,1,2"/><circle cx="89.135" cy="271.08" r="4" fill="#ffffff" stroke="#1c5fa8" stroke-width="0.13"/><text x="89.135" y="271.93" font-family="'Helvetica Neue',Helvetica,Arial,sans-serif" font-size="2.4" fill="#1c5fa8" font-weight="600" text-anchor="middle">D</text><circle cx="571.865" cy="271.08" r="4" fill="#ffffff" stroke="#1c5fa8" stroke-width="0.13"/><text x="571.865" y="271.93" font-family="'Helvetica Neue',Helvetica,Arial,sans-serif" font-size="2.4" fill="#1c5fa8" font-weight="600" text-anchor="middle">D</text><line x1="93.135" y1="219.24" x2="567.865" y2="219.24" stroke="#1c5fa8" stroke-width="0.13" stroke-linecap="round" stroke-dasharray="6,2,1,2"/><circle cx="89.135" cy="219.24" r="4" fill="#ffffff" stroke="#1c5fa8" stroke-width="0.13"/><text x="89.135" y="220.09" font-family="'Helvetica Neue',Helvetica,Arial,sans-serif" font-size="2.4" fill="#1c5fa8" font-weight="600" text-anchor="middle">E</text><circle cx="571.865" cy="219.24" r="4" fill="#ffffff" stroke="#1c5fa8" stroke-width="0.13"/><text x="571.865" y="220.09" font-family="'Helvetica Neue',Helvetica,Arial,sans-serif" font-size="2.4" fill="#1c5fa8" font-weight="600" text-anchor="middle">E</text><line x1="93.135" y1="167.4" x2="567.865" y2="167.4" stroke="#1c5fa8" stroke-width="0.13" stroke-linecap="round" stroke-dasharray="6,2,1,2"/><circle cx="89.135" cy="167.4" r="4" fill="#ffffff" stroke="#1c5fa8" stroke-width="0.13"/><text x="89.135" y="168.25" font-family="'Helvetica Neue',Helvetica,Arial,sans-serif" font-size="2.4" fill="#1c5fa8" font-weight="600" text-anchor="middle">F</text><circle cx="571.865" cy="167.4" r="4" fill="#ffffff" stroke="#1c5fa8" stroke-width="0.13"/><text x="571.865" y="168.25" font-family="'Helvetica Neue',Helvetica,Arial,sans-serif" font-size="2.4" fill="#1c5fa8" font-weight="600" text-anchor="middle">F</text><circle cx="625" cy="38" r="11" fill="none" stroke="#111111" stroke-width="0.25"/><path d="M 625 28.54 L 628.3 44.05 L 625 40.64 Z" fill="#111111"/><path d="M 625 28.54 L 621.7 44.05 L 625 40.64 Z" fill="#ffffff" stroke="#111111" stroke-width="0.18" stroke-linecap="round" stroke-linejoin="round"/><text x="625" y="24.6" font-family="'Helvetica Neue',Helvetica,Arial,sans-serif" font-size="3.6" fill="#111111" font-weight="700" text-anchor="middle">N</text><rect x="18" y="558" width="33.333" height="2.2" fill="#111111" stroke="#111111" stroke-width="0.18"/><rect x="51.333" y="558" width="33.333" height="2.2" fill="#ffffff" stroke="#111111" stroke-width="0.18"/><rect x="84.667" y="558" width="33.333" height="2.2" fill="#111111" stroke="#111111" stroke-width="0.18"/><rect x="118" y="558" width="33.333" height="2.2" fill="#ffffff" stroke="#111111" stroke-width="0.18"/><text x="18" y="563.6" font-family="'Helvetica Neue',Helvetica,Arial,sans-serif" font-size="2.1" fill="#111111" font-weight="400" text-anchor="middle">0</text><text x="51.333" y="563.6" font-family="'Helvetica Neue',Helvetica,Arial,sans-serif" font-size="2.1" fill="#111111" font-weight="400" text-anchor="middle">5</text><text x="84.667" y="563.6" font-family="'Helvetica Neue',Helvetica,Arial,sans-serif" font-size="2.1" fill="#111111" font-weight="400" text-anchor="middle">10</text><text x="118" y="563.6" font-family="'Helvetica Neue',Helvetica,Arial,sans-serif" font-size="2.1" fill="#111111" font-weight="400" text-anchor="middle">15</text><text x="151.333" y="563.6" font-family="'Helvetica Neue',Helvetica,Arial,sans-serif" font-size="2.1" fill="#111111" font-weight="400" text-anchor="middle">20</text><text x="154.333" y="563.6" font-family="'Helvetica Neue',Helvetica,Arial,sans-serif" font-size="2.1" fill="#111111" font-weight="400" text-anchor="start">m</text><text x="18" y="556" font-family="'Helvetica Neue',Helvetica,Arial,sans-serif" font-size="2.3" fill="#111111" font-weight="600" text-anchor="start">SCALE 1:150</text><text x="18" y="28" font-family="'Helvetica Neue',Helvetica,Arial,sans-serif" font-size="2.4" fill="#8a8a8a" font-weight="700" text-anchor="start" letter-spacing="1">LEGEND</text><rect x="18" y="30.9" width="6" height="3.4" fill="#111111" stroke="#111111" stroke-width="0.18"/><text x="27.2" y="33.5" font-family="'Helvetica Neue',Helvetica,Arial,sans-serif" font-size="2.2" fill="#111111" font-weight="400" text-anchor="start">Column 250 x 250</text><line x1="18" y1="37" x2="24" y2="37" stroke="#111111" stroke-width="0.35" stroke-linecap="round"/><text x="27.2" y="37.9" font-family="'Helvetica Neue',Helvetica,Arial,sans-serif" font-size="2.2" fill="#111111" font-weight="400" text-anchor="start">Primary beam</text><line x1="18" y1="41.4" x2="24" y2="41.4" stroke="#5c6a76" stroke-width="0.25" stroke-linecap="round"/><text x="27.2" y="42.3" font-family="'Helvetica Neue',Helvetica,Arial,sans-serif" font-size="2.2" fill="#111111" font-weight="400" text-anchor="start">Secondary beam</text><rect x="18" y="44.1" width="6" height="3.4" fill="#d7dbe0" stroke="#111111" stroke-width="0.18"/><text x="27.2" y="46.7" font-family="'Helvetica Neue',Helvetica,Arial,sans-serif" font-size="2.2" fill="#111111" font-weight="400" text-anchor="start">Shear core, in-situ walls</text><text x="18" y="523.6" font-family="'Helvetica Neue',Helvetica,Arial,sans-serif" font-size="2.4" fill="#8a8a8a" font-weight="700" text-anchor="start" letter-spacing="1">STRUCTURE</text><text x="18" y="529" font-family="'Helvetica Neue',Helvetica,Arial,sans-serif" font-size="2.2" fill="#111111" font-weight="400" text-anchor="start">Grid: 6901 x 7775</text><text x="18" y="532.3" font-family="'Helvetica Neue',Helvetica,Arial,sans-serif" font-size="2.2" fill="#111111" font-weight="400" text-anchor="start">Columns this level: 33</text><text x="18" y="535.6" font-family="'Helvetica Neue',Helvetica,Arial,sans-serif" font-size="2.2" fill="#111111" font-weight="400" text-anchor="start">Tributary area: 54 m²</text><text x="18" y="538.9" font-family="'Helvetica Neue',Helvetica,Arial,sans-serif" font-size="2.2" fill="#111111" font-weight="400" text-anchor="start">Design UDL: 9.5 kN/m² (5.5 dead + 4.0 live)</text><text x="18" y="542.2" font-family="'Helvetica Neue',Helvetica,Arial,sans-serif" font-size="2.2" fill="#111111" font-weight="400" text-anchor="start">Column load: 510 kN over 1 storeys</text><text x="18" y="545.5" font-family="'Helvetica Neue',Helvetica,Arial,sans-serif" font-size="2.2" fill="#111111" font-weight="400" text-anchor="start">Slab 250, beams 400 deep</text></svg>